<svg width="34" height="34" viewBox="0 0 34 34" fill="none" xmlns="http://www.w3.org/2000/svg">
<path d="M17.0041 2.12451C11.1487 2.12451 6.37708 6.8984 6.37708 12.7538C6.37708 16.9279 8.895 21.5049 11.3326 25.1614C13.7703 28.8178 16.2114 31.5218 16.2114 31.5218C16.3111 31.6321 16.4327 31.7203 16.5685 31.7806C16.7044 31.841 16.8514 31.8723 17 31.8723C17.1486 31.8723 17.2956 31.841 17.4314 31.7806C17.5673 31.7203 17.6889 31.6321 17.7886 31.5218C17.7886 31.5218 20.2297 28.8178 22.6674 25.1614C25.105 21.5049 27.6229 16.9279 27.6229 12.7538C27.6229 6.8984 22.8596 2.12451 17.0041 2.12451ZM17.0041 4.24954C21.7111 4.24954 25.4979 8.04682 25.4979 12.7538C25.4979 16.0172 23.245 20.4692 20.9014 23.9847C18.9522 26.9084 17.605 28.3857 17.0041 29.0752C16.4046 28.3873 15.0552 26.9102 13.1049 23.9847C10.7612 20.4692 8.50208 16.0172 8.50208 12.7538C8.50208 8.04682 12.2971 4.24954 17.0041 4.24954ZM17.0041 8.50182C14.6695 8.50182 12.7521 10.4192 12.7521 12.7538C12.7521 15.0884 14.6695 17.0037 17.0041 17.0037C19.3388 17.0037 21.2541 15.0884 21.2541 12.7538C21.2541 10.4192 19.3388 8.50182 17.0041 8.50182ZM17.0041 10.6266C18.1903 10.6266 19.1291 11.5676 19.1291 12.7538C19.1291 13.94 18.1903 14.8787 17.0041 14.8786C15.818 14.8787 14.8791 13.94 14.8791 12.7538C14.8791 11.5676 15.818 10.6266 17.0041 10.6266Z" fill="black" fill-opacity="0.3"/>
</svg>
