<svg width="233" height="116" viewBox="0 0 233 116" fill="none" xmlns="http://www.w3.org/2000/svg">
<g clip-path="url(#clip0_38_4)">
<path d="M0.32984 0C0.32984 38.0867 0.320494 76.1745 0.30177 114.264C0.30177 115.453 0.593138 115.737 1.77973 115.737C78.8472 115.707 155.916 115.697 232.986 115.709C232.93 115.79 233.119 115.982 232.856 115.975C232.505 115.975 232.154 115.975 231.803 115.975C154.953 115.975 78.1018 115.984 1.24962 116C0.266647 116 0.0419662 115.779 0.0419662 114.797C0.074732 76.9252 0.0887942 39.0537 0.0841134 1.18217C0.0735815 0.796297 -0.217817 0.308697 0.32984 0Z" fill="#FAFDFA"/>
<path d="M5.81011 50.0931C5.92596 46.936 7.36882 44.2489 9.02935 41.6741C9.12062 41.7583 9.20839 41.9162 9.29967 41.9162C11.9116 41.8811 14.5024 42.288 17.1213 42.267C27.9762 42.2179 38.8345 42.2354 49.6894 42.267C51.0129 42.267 52.526 41.8355 53.2 43.7403C53.4141 44.3647 54.5446 43.9999 55.0255 44.284C55.3766 44.4945 55.187 45.589 56.1524 45.5925L56.1103 45.6451C56.1454 45.9959 55.8646 46.4905 56.4614 46.6484V46.6273C56.2332 47.2377 56.3911 47.6376 57.0687 47.7604C57.3846 48.8408 57.8656 49.8862 57.7041 51.0578C57.353 51.7594 57.5777 52.482 57.6163 53.2117C57.6374 53.6291 58.1324 54.3869 57.5848 54.443C56.7773 54.5272 57.2829 53.6572 57.1319 53.2292C57.0898 53.11 57.1319 52.9591 57.0897 52.8434C56.858 52.2926 56.3876 52.8434 56.0366 52.6224C56.0011 52.5964 55.9598 52.5793 55.9164 52.5726C55.8729 52.5659 55.8284 52.5697 55.7867 52.5839C55.745 52.598 55.7074 52.6219 55.6769 52.6536C55.6465 52.6854 55.6241 52.724 55.6118 52.7662C55.5829 52.8488 55.586 52.9392 55.6204 53.0197C55.6548 53.1002 55.7181 53.1649 55.7978 53.2012C57.5532 54.0536 56.1489 55.4007 56.5912 56.5337C56.0857 56.4636 56.0928 56.2706 56.0752 56.1092C55.8997 54.4325 55.9032 54.436 54.2146 54.5798C53.9126 54.6044 53.6037 54.5798 53.2983 54.5798H38.2026C38.2026 54.5026 38.2026 54.3728 38.157 54.3518C38.0236 54.2851 38.4168 53.6502 37.8586 54.0676C37.7778 53.6853 37.7111 53.3029 37.6128 52.9276C37.1635 51.1982 36.5596 49.5249 35.0044 48.476C32.0941 46.5045 27.9832 47.1605 26.1015 51.1701H25.8277L25.7083 51.121L25.8101 51.1876L25.8838 51.5875C25.9168 51.7499 25.9124 51.9176 25.8711 52.078C25.8297 52.2384 25.7525 52.3874 25.6451 52.5136C25.4977 52.3137 25.4871 51.812 25.0483 52.2891C24.6095 52.7662 24.5709 53.4117 24.1496 54.2921C24.0127 53.0538 23.8477 52.4926 22.7032 53.1415C22.1099 53.4923 21.3902 53.4467 21.0743 54.2641C20.9514 54.5868 20.4038 54.5938 19.9965 54.5938C16.6755 54.5938 13.3544 54.6149 10.0334 54.5728C9.25753 54.5728 7.9551 54.5377 7.80766 54.1588C7.31266 52.896 7.07041 54.4921 6.69477 54.0571C6.57541 53.5204 6.80009 52.5382 5.59595 52.7522L5.62052 51.9594C5.64861 51.9383 5.70128 51.9067 5.69777 51.8892C5.67771 51.8289 5.65305 51.7703 5.62404 51.7138V51.1841C6.32967 50.9 6.21032 50.5176 5.81011 50.0931ZM6.77903 49.8195C6.6702 50.465 6.42797 50.921 7.07041 51.4192C7.11605 50.8403 7.33721 50.4159 6.77903 49.8195Z" fill="#02F002"/>
<path d="M147.053 16.0207C146.597 20.3284 142.047 24.573 137.75 24.6642C135.057 24.7168 132.33 25.015 129.819 23.6118C127.067 22.0824 125.105 19.9496 124.424 16.7959C124.424 15.6208 124.466 14.4386 124.424 13.2634C124.28 10.201 125.105 7.49292 127.299 5.28292C127.421 5.15935 127.51 5.00757 127.559 4.84109C127.608 4.67462 127.615 4.49862 127.58 4.32877C131.666 0.820846 136.328 0.729648 141.015 2.55026C144.448 3.88327 146.512 6.67206 147.081 10.4115C147.069 12.2801 147.06 14.1498 147.053 16.0207Z" fill="#03FB05"/>
<path d="M115.987 23.0751C115.463 23.6058 114.798 23.9768 114.071 24.145C108.24 25.5482 102.268 24.9378 99.1189 19.0164C98.5644 18.0826 98.2172 17.0406 98.1008 15.9611V10.4466C99.154 3.83065 105.656 0.161366 112.4 1.92936C112.628 2.12931 112.831 2.46607 113.102 2.50816C114.889 2.81335 116.1 3.77804 117.455 5.03387C118.855 6.26015 119.836 7.89239 120.263 9.70292C121.443 14.4807 120.825 18.7499 116.781 22.0719C116.451 22.3314 116.03 22.577 115.987 23.0751Z" fill="#03FB05"/>
<path d="M56.1385 45.582C55.1731 45.582 55.3732 44.484 55.0116 44.2735C54.5306 43.9894 53.4002 44.3542 53.186 43.7298C52.526 41.825 51.013 42.26 49.6754 42.2565C38.8206 42.2319 27.9622 42.2144 17.1074 42.2565C14.4885 42.2565 11.8976 41.8601 9.28571 41.9057C9.19443 41.9057 9.10666 41.7478 9.01538 41.6636C9.54197 40.5867 10.367 39.7343 11.1674 38.8573C11.5676 38.7696 12.0345 38.9871 12.354 38.5065C13.2587 37.2547 14.4348 36.2234 15.7944 35.4897C17.4865 34.518 19.0488 33.22 21.1025 32.8868C21.4535 32.8307 22.289 32.7605 22.4014 32.0133C24.255 30.9329 26.3052 30.8978 28.3694 30.9188H34.0461C36.477 30.7926 38.9101 31.1185 41.2218 31.88C43.086 32.4693 44.7851 33.4095 46.5966 34.1005L50.8304 37.4225L50.8585 37.5173C50.8339 37.6716 50.9041 37.7312 51.0551 37.7102C51.0578 37.7218 51.0636 37.7324 51.0719 37.741C51.0801 37.7496 51.0905 37.7558 51.1019 37.759C51.1134 37.7623 51.1255 37.7624 51.1371 37.7593C51.1486 37.7563 51.159 37.7502 51.1674 37.7418L55.0045 42.5055C55.1379 43.6245 56.1876 44.3998 56.1385 45.582Z" fill="#03FB05"/>
<path d="M34.7728 80.8226L34.2356 80.8506C31.7782 80.6927 29.2646 81.0646 26.8282 80.3911L26.7791 80.0403C26.5403 80.1174 26.6878 80.2964 26.6738 80.4332L26.5684 81.0821C25.8452 81.3979 26.1858 82.0398 26.1858 82.5204C26.1858 83.6745 26.4736 84.8566 26.3157 85.9792C25.9225 88.8101 26.1963 91.641 26.0875 94.4684C20.8356 94.4684 15.5825 94.4684 10.3283 94.4684C9.39799 94.4684 8.13766 93.8966 8.09905 95.64C8.09905 95.7312 7.84979 95.8785 7.70586 95.8926C7.48118 95.9136 7.46364 95.6856 7.43204 95.5207C7.33725 95.0086 7.22139 94.5 7.17575 93.9808C7.13011 93.4616 7.23544 92.8547 6.37534 92.3321C6.37534 93.4511 6.37534 94.3807 6.37534 95.3068C6.37534 95.8926 6.40342 96.4889 5.58545 96.5626V82.124C6.2314 82.0258 6.10151 81.5206 6.10853 81.1067C6.10853 80.3209 6.10853 79.5351 6.10853 78.7494C6.10853 78.0267 6.35428 77.8619 7.1231 77.4725C8.33076 76.8656 8.34129 77.711 8.7731 78.1039C9.20491 78.4968 9.73851 78.4547 10.2546 78.4547C14.9354 78.4547 19.6162 78.4547 24.2971 78.4547C25.4064 78.4547 26.5474 78.5249 27.6216 78.3144C30.4354 77.702 33.35 77.7199 36.156 78.367C36.4283 78.4285 36.7105 78.4331 36.9847 78.3805C37.259 78.328 37.5194 78.2195 37.7498 78.0618C39.0206 77.3602 40.3617 77.711 41.7062 77.9285C40.8391 78.3425 39.656 77.8829 39.0838 79.0791C39.5999 79.3387 40.2423 79.4299 40.5653 79.1142C41.1165 78.595 41.8326 78.8792 42.3838 78.4863C42.8783 78.1448 43.4184 77.8744 43.9881 77.683C44.7535 77.4164 44.613 76.8586 44.7815 76.2798C44.9255 75.7852 45.7926 77.048 46.4701 76.4762C46.6386 76.3359 46.7685 76.0974 46.9546 76.0483C47.8288 75.8027 48.0289 74.6837 48.9697 74.5469C48.8718 74.6784 48.8045 74.8301 48.7729 74.991C48.7413 75.1519 48.7462 75.3177 48.7872 75.4765C47.9657 76.4377 46.6808 76.7674 45.8172 77.69C44.6684 78.0066 43.5821 78.5167 42.605 79.1984H42.6295C41.9274 79.2791 41.1761 79.265 40.6039 79.8052L40.302 79.8403L34.7728 80.8226Z" fill="#02CD01"/>
<path d="M223.272 101.018C223.135 101.218 222.893 101.368 222.921 101.656C222.444 102.182 221.847 102.621 221.636 103.35C220.727 104.192 219.691 104.901 218.982 105.95L219.024 106.002L218.989 105.946C218.819 105.948 218.654 106 218.515 106.097C218.376 106.194 218.269 106.331 218.21 106.49C218.135 106.482 218.061 106.503 218.002 106.549C217.943 106.595 217.904 106.662 217.894 106.736V106.704C217.391 106.837 216.948 107.137 216.64 107.556C216.568 107.545 216.494 107.563 216.434 107.605C216.375 107.648 216.334 107.712 216.321 107.784V107.753C215.807 107.857 215.348 108.143 215.029 108.56C214.703 108.668 214.362 108.753 214.043 108.882C212.08 109.682 210.181 110.696 208.008 110.826L202.809 110.805C200.804 110.763 199.105 109.71 197.262 109.138C197.161 108.963 197.016 108.817 196.841 108.716C196.666 108.615 196.467 108.563 196.265 108.563H196.24C195.805 108.104 195.377 107.63 194.724 107.479H194.703L191.301 104.073C190.402 102.7 189.506 101.326 188.612 99.9512C187.727 97.9166 186.845 95.8821 185.965 93.8475C185.974 93.8354 185.981 93.8216 185.985 93.8068C185.989 93.792 185.989 93.7766 185.987 93.7615C185.985 93.7464 185.979 93.7319 185.971 93.7189C185.963 93.706 185.953 93.6948 185.94 93.6861C185.959 93.4379 185.925 93.1885 185.841 92.9544C185.756 92.7204 185.622 92.507 185.449 92.3285C184.906 90.0694 184.363 87.8091 183.82 85.5477C183.872 83.9586 183.167 82.4467 183.307 80.8471C183.82 80.3806 183.795 79.7667 183.795 79.1493C183.795 76.8165 182.96 74.5469 183.275 72.1895C183.309 71.754 183.309 71.3166 183.275 70.8811C183.511 70.1795 182.756 69.2534 183.813 68.7763C183.788 69.2534 183.732 69.734 183.742 70.2111C183.886 77.248 184.501 84.2428 186.47 91.0236C187.941 96.103 189.956 100.93 193.769 104.775C198.476 109.524 204.16 111.11 210.493 109.054C217.722 106.711 222.542 101.789 224.887 94.4438C226.165 90.4693 227.344 86.4808 228.338 82.4292C228.785 80.8327 229.089 79.1998 229.247 77.5496C229.412 74.9748 228.327 73.6594 225.828 73.3998C224.378 73.2489 223.662 73.705 223.142 75.0906C222.674 76.3464 222.206 77.5999 221.738 78.8511C221.538 79.3703 221.246 79.8333 220.59 79.5527C219.933 79.272 220.053 78.7248 220.176 78.1986C220.243 78.0394 220.318 77.8837 220.4 77.7321C221.102 75.7711 221.998 73.8734 222.328 71.7932C222.591 70.1269 221.626 68.7483 219.716 68.3378C217.63 67.8853 216.609 68.0327 215.889 69.9059C215.141 71.8458 214.334 73.7646 213.516 75.6764C213.309 76.164 213.098 76.9007 212.34 76.5815C211.582 76.2622 211.789 75.6729 212.013 75.0239C212.849 72.607 213.993 70.2953 214.506 67.7625C215.001 65.3315 214.06 63.8758 211.473 63.2022C209.482 62.6936 208.103 63.6372 207.404 65.9349C206.646 68.4209 205.862 70.8998 205.052 73.3717C204.873 73.9225 204.645 74.6802 203.816 74.368C203.061 74.0838 203.216 73.3928 203.409 72.7894C205.796 65.3561 208.208 57.9333 210.55 50.4895C210.778 49.7669 211.252 49.0618 211.066 48.2269C210.774 46.9535 209.208 45.7714 207.625 45.6381C205.364 45.4521 204.339 45.9187 203.732 47.599C201.769 53.0328 200.291 58.6174 198.568 64.1248C198.052 65.77 197.778 67.4924 196.97 69.0359C197.023 68.0432 196.546 68.5413 196.17 68.7483L196.149 68.1975C196.952 65.3421 197.757 62.4843 198.564 59.6242C198.881 59.1419 199.05 58.5771 199.049 58C199.075 57.9727 199.094 57.9385 199.102 57.9013C199.11 57.8641 199.107 57.8253 199.094 57.7895C200.337 54.4254 201.317 50.9806 202.254 47.5218C203.16 45.3434 204.711 44.2279 207.144 44.5611C207.53 44.6138 207.927 44.5787 208.32 44.6032C210.132 44.719 211.48 46.0941 212.027 47.8375C212.473 49.2968 211.743 50.4474 211.424 51.6962C210.722 54.4254 209.616 57.0353 209.008 59.7961C208.487 60.5573 208.227 61.4669 208.268 62.3884C209.517 61.7991 210.725 61.9148 211.94 61.9289C211.958 61.9558 211.987 61.9746 212.019 61.9811C212.051 61.9877 212.084 61.9815 212.112 61.9639C212.435 62.7743 213.291 62.2586 213.786 62.6339L214.316 62.9847C214.349 63.1076 214.415 63.2191 214.507 63.3075C214.598 63.3958 214.712 63.4577 214.836 63.4864V63.5039C215.051 63.9759 215.292 64.4361 215.556 64.8825C216.061 65.6508 215.387 67.0715 216.258 67.2679C217.009 67.4433 218.038 67.1592 218.947 67.1627C221.755 67.1627 223.535 68.8079 223.458 71.5476C223.426 72.6 223.669 72.4281 224.378 72.2772C226.835 71.7581 229.142 72.842 230.044 74.8766C230.493 76.5078 230.195 78.1425 230.072 79.7877C230.125 80.4893 229.872 81.1488 229.721 81.8188C228.963 84.8952 228.19 87.9682 227.425 91.0446C227.036 91.5758 226.842 92.2253 226.877 92.8828C226.144 94.2021 225.604 95.6197 225.273 97.0923V97.201C224.216 98.2464 223.7 99.6005 223.272 101.018Z" fill="#22E425"/>
<path d="M152.319 35.9457C152.287 35.1564 152.259 34.3671 152.228 33.5778C152.256 33.0727 152.28 32.5711 152.305 32.0694L177.199 32.0063C180.123 32.0063 183.047 31.9712 185.975 31.9502C187.848 31.8909 189.685 32.4726 191.181 33.5989C191.181 34.4268 191.985 34.6513 192.382 35.1845C192.944 35.9387 193.597 35.5528 194.488 35.202C193.73 36.2544 193.702 37.0261 194.323 37.7838C193.576 37.6926 193.27 37.9698 193.246 38.7696C193.221 39.401 193.73 40.2394 192.779 40.6638C192.719 37.8189 192.719 37.8224 190.402 38.0399C190.107 38.068 189.7 37.9908 189.675 38.4082C189.651 38.8257 190.026 38.7871 190.332 38.8467C190.637 38.9064 191.28 38.6082 191.283 39.1975C191.274 39.4866 191.164 39.7633 190.971 39.9794C190.779 40.1954 190.516 40.3371 190.23 40.3797C188.928 40.6744 187.99 40.2148 187.46 39.0116C186.93 37.8084 187.351 36.2053 188.415 35.5212C189.412 34.8793 190.339 35.1038 191.339 36.2228C191.536 36.4368 191.75 36.8262 192.066 36.5736C192.382 36.321 192.228 35.9527 192.024 35.6335C191.685 35.147 191.206 34.7744 190.651 34.5646C190.096 34.3549 189.49 34.3178 188.914 34.4583C185.915 35.2616 185.161 38.8923 187.488 40.6954C187.488 40.7761 187.488 40.8533 187.488 40.9339C187.269 40.7526 186.993 40.6533 186.709 40.6533C186.424 40.6533 186.149 40.7526 185.93 40.9339C184.954 39.2852 184.585 37.398 183.823 35.6721C183.62 35.2055 183.472 34.7916 182.935 34.6653C182.233 34.4969 182.177 35.1424 182.012 35.5247C181.376 36.9805 180.934 38.517 180.137 39.9026C179.565 39.4852 179.21 39.864 179.115 40.3271C178.971 41.0287 178.522 40.9375 178.062 40.941C178.062 39.7202 178.118 38.4854 178.02 37.2787C177.904 35.9036 178.125 34.9424 179.821 35.1178C179.867 35.1178 179.937 34.9319 180.039 34.767H174.903C175.506 35.6089 176.742 34.6478 176.939 35.7177C177.034 36.5396 177.058 37.3683 177.009 38.1943C177.009 38.6748 177.009 39.1554 177.009 39.636C175.617 39.8647 174.205 39.9435 172.796 39.8711C172.796 39.7097 172.796 39.5448 172.796 39.3835C172.811 39.2792 172.795 39.173 172.749 39.0781C172.703 38.9832 172.631 38.9039 172.54 38.8502C172.285 38.7923 172.017 38.825 171.783 38.9428C171.549 39.0606 171.364 39.2561 171.259 39.4957C171.113 39.7597 170.905 39.9837 170.652 40.1477C170.399 40.3117 170.109 40.4107 169.809 40.4358C168.338 40.6568 167.123 38.7345 167.485 37.1208C167.556 36.6636 167.765 36.2386 168.082 35.9018C168.4 35.565 168.812 35.332 169.265 35.2336C169.678 35.1492 170.108 35.2026 170.489 35.3857C170.869 35.5688 171.179 35.8715 171.371 36.2474C171.596 36.6297 171.905 36.9244 172.305 36.6332C172.705 36.3421 172.305 35.9983 172.164 35.7177C171.718 34.7916 170.248 34.1882 169.033 34.3987C167.716 34.6267 166.575 35.7001 166.509 36.8823C166.456 37.7067 166.509 38.538 166.509 39.3659C166.209 39.3523 165.911 39.3076 165.621 39.2326C165.368 39.1414 165.112 38.7169 164.982 39.3028C164.897 39.6535 165.129 39.8746 165.501 39.8781C165.873 39.8816 166.414 40.0184 166.512 39.3729L167.306 40.4499L167.537 40.6779L167.825 40.955C167.165 41.7548 167.169 41.7478 166.389 41.162C166.244 41.0896 166.078 41.0685 165.919 41.1023C165.61 41.1392 165.298 41.0639 165.04 40.8899C164.783 40.716 164.596 40.4552 164.515 40.1552C164.188 38.9134 163.216 39.6711 162.619 39.5132C162.138 39.3835 162.394 40.2674 162.289 40.6954C162.101 40.3719 162.004 40.0037 162.007 39.6296C162.011 39.2555 162.116 38.8893 162.31 38.5696L162.549 38.3591H163.363C163.634 38.5319 163.948 38.6237 164.269 38.6237C164.59 38.6237 164.904 38.5319 165.175 38.3591C165.642 37.8084 165.364 37.5839 164.789 37.5523C164.213 37.5207 163.655 37.5172 163.086 37.5523C162.275 37.5909 162.033 37.177 162.033 36.4298C162.033 35.6826 162.229 35.1494 163.132 35.216C163.735 35.2616 164.346 35.1529 164.95 35.3353C165.354 35.4546 165.691 35.3353 165.922 34.76C164.634 34.6758 163.433 34.6758 162.257 34.5004C161.471 34.3846 161.204 34.5881 161.229 35.3458C161.229 36.8718 161.229 38.3942 161.201 39.9061C160.706 40.5726 160.204 39.5939 159.705 39.9061C159.705 38.503 159.705 37.0998 159.705 35.6966C159.773 35.658 159.829 35.6021 159.869 35.5347C159.908 35.4672 159.929 35.3905 159.929 35.3125C159.929 35.2345 159.908 35.1578 159.869 35.0903C159.829 35.0229 159.773 34.967 159.705 34.9284C159.003 34.4057 158.901 34.8547 158.891 35.4195C158.891 36.2895 158.891 37.1735 158.87 38.0364C158.87 38.3872 159.098 38.9485 158.719 39.1098C158.238 39.3133 158.017 38.7836 157.75 38.4328C156.932 37.3208 156.096 36.2193 155.257 35.1213C154.983 34.7705 154.601 34.4197 154.165 34.5425C153.73 34.6653 153.916 35.2196 153.899 35.5949C153.86 36.3351 153.874 37.0752 153.867 37.8154C153.165 37.7873 152.814 38.1171 152.845 38.8292C152.877 39.5413 152.845 40.2148 152.845 40.9059C152.845 44.1156 152.845 44.1156 156.005 44.1191L155.471 44.6313C154.541 44.7733 153.594 44.7733 152.663 44.6313C152.519 44.0349 152.821 43.3719 152.4 42.8107C152.364 42.5511 152.333 42.295 152.298 42.0354C152.326 41.9442 152.357 41.853 152.385 41.7618C152.741 39.8371 152.718 37.8617 152.319 35.9457ZM179.351 38.524C179.449 38.3872 179.558 38.303 179.561 38.2118C179.565 38.1206 179.491 37.9452 179.421 37.9241C179.214 37.868 179.133 38.0294 179.147 38.2013C179.157 38.296 179.256 38.3802 179.351 38.524Z" fill="#04F606"/>
<path d="M107.85 29.8629H108.643C110.159 29.9108 111.67 30.062 113.165 30.3155C117.332 31.1223 120.067 34.2443 120.26 38.524C120.221 39.3273 120.186 40.1306 120.147 40.934C119.41 41.2847 119.41 41.6355 120.147 41.9863V43.8069C119.017 43.9543 119.15 43.1755 119.15 42.4704C119.15 40.4955 119.333 40.5656 117.307 40.6814C111.266 41.0322 105.157 39.7869 99.175 41.4461C99.0276 40.1412 99.4699 38.8011 98.9258 37.5207C99.2101 34.6267 101.281 31.6836 104.241 30.8276C105.445 30.4768 106.67 30.2523 107.85 29.8629Z" fill="#04F606"/>
<path d="M146.551 66.8926C146.551 70.2228 146.551 73.5495 146.551 76.8726C146.53 77.3778 146.551 77.8864 146.481 78.3846C146.435 78.7845 146.751 79.3808 145.989 79.4685C145.638 79.1177 145.175 79.2264 144.753 79.2264C138.65 79.2264 132.546 79.2264 126.442 79.2264C126.021 79.2264 125.561 79.0897 125.206 79.465L124.715 79.444L124.743 79.4124C124.992 78.4617 124.767 77.5041 124.767 76.5464C124.767 64.4838 124.76 52.4201 124.746 40.3551C124.746 39.8395 124.648 39.3028 124.915 38.8117C124.943 39.1835 124.971 39.5554 124.996 39.9272V41.9232C124.996 42.93 124.957 43.9367 124.964 44.94C124.964 45.4872 124.792 46.1117 125.463 46.4449C125.463 46.9676 125.463 47.4973 125.463 48.0165V54.5763C125.463 56.239 125.463 57.9006 125.463 59.561V66.9277C125.463 68.3659 125.463 69.8042 125.463 71.2389C125.463 71.5301 125.463 72.1089 125.687 72.0247C126.758 71.6037 127.348 72.7263 128.275 72.7052C132.73 72.6842 137.185 72.7052 141.636 72.7052C141.806 72.7202 141.978 72.6995 142.14 72.6446C142.302 72.5896 142.451 72.5015 142.577 72.386C143.721 71.3336 143.957 71.3862 144.631 72.7964C145.09 72.7964 144.729 72.0528 145.217 72.0948C145.568 72.1334 145.298 72.7964 145.961 72.7964V58.7753H146.467C146.497 60.88 146.527 62.9848 146.558 65.0895L146.551 66.8926Z" fill="#03B903"/>
<path d="M5.58885 88.9469V96.5556C5.58885 96.731 5.58885 96.9064 5.58885 97.0853V98.3902C5.58885 99.5233 5.64151 100.66 5.56779 101.789C5.51513 102.617 5.91885 103.172 6.62097 103.193C8.10948 103.217 8.34117 104.094 8.34819 105.255C8.34819 105.28 8.49213 105.304 8.72383 105.378C8.89936 103.333 10.1527 103.126 11.7991 103.645C11.9696 103.688 12.1482 103.688 12.3187 103.645C14.3022 103.172 16.3208 103.519 18.3183 103.382C20.2 103.249 22.0431 103.768 23.9353 103.659C25.1992 103.582 26.0417 102.937 26.0628 101.87C26.1084 99.4146 26.1014 96.9344 26.1154 94.4684C26.2243 91.641 25.9505 88.8101 26.3436 85.9792C26.5016 84.8567 26.2067 83.6745 26.2138 82.5204C26.2138 82.0398 25.8627 81.3979 26.5964 81.0822C26.6315 82.0503 26.6678 83.0162 26.7052 83.9797C26.6912 89.8426 26.6795 95.7032 26.6701 101.561C26.3506 102.399 26.1795 103.286 26.1646 104.182C26.1646 104.277 26.14 104.368 26.1295 104.462C26.0519 104.517 25.9924 104.594 25.9586 104.683C25.9248 104.771 25.9183 104.868 25.9399 104.961L25.8592 105.038C25.6275 105.111 25.6345 105.29 25.6626 105.48C25.2528 106.465 24.6318 107.349 23.8432 108.068C23.0547 108.787 22.1179 109.325 21.0988 109.644C17.5882 110.815 13.9862 110.942 10.4651 109.644C7.0001 108.374 5.19917 105.802 5.06226 102.112L5.13597 84.2217C5.2132 84.2217 5.28693 84.2217 5.36416 84.2217C5.4765 85.7933 5.00609 87.3999 5.58885 88.9469Z" fill="#03B903"/>
<path d="M98.6133 78.9704C98.6133 78.6196 98.6133 78.2688 98.6133 77.918C98.6133 77.6514 98.6133 77.3883 98.6133 77.1217C98.6484 73.3612 98.6823 69.5995 98.7151 65.8367H99.189C99.189 66.2787 99.189 66.7242 99.189 67.1662C99.189 68.387 99.189 69.6218 99.189 70.8285C99.2312 73.284 99.8701 73.8874 102.292 73.7295C102.598 73.7085 102.903 73.7295 103.209 73.7295C107.421 73.7295 111.596 73.7295 115.787 73.7295C116.798 73.7295 117.76 73.7295 118.55 74.9889C118.62 73.5857 118.669 72.5684 118.722 71.5441C119.424 72.7929 118.884 74.1821 119.336 75.4028L119.688 75.3747V68.4817C119.688 67.2574 119.688 66.0261 119.688 64.8089C119.688 64.402 119.537 63.8898 120.169 63.7565C120.169 68.5588 120.168 73.3647 120.214 78.1706C120.214 78.9423 119.996 79.244 119.161 79.2229C112.333 79.1844 105.505 79.1844 98.68 79.1738C98.6626 79.1045 98.6404 79.0365 98.6133 78.9704Z" fill="#03B903"/>
<path d="M146.544 39.5974C146.512 40.299 146.484 41.0006 146.453 41.7022H145.972C146.045 40.6709 145.666 39.6781 145.621 38.7029C145.571 37.8505 145.389 37.7558 144.725 37.7663C144.062 37.7768 143.672 37.612 144.129 36.8578C144.659 36.0088 144.385 35.2406 143.907 34.4022C142.998 35.9808 142.998 35.9808 140.997 35.7107C140.87 35.68 140.738 35.6717 140.607 35.6861C137.641 36.3877 134.639 35.623 131.659 35.851C129.781 35.9913 127.874 35.9071 125.993 36.1807C125.94 35.5774 126.235 34.974 126.014 34.3671C126.716 33.5147 127.239 32.4939 128.211 31.8905C131.782 29.6665 135.64 29.435 139.617 30.3856C144.255 31.5082 145.529 34.0269 146.288 37.7172C146.253 38.0154 146.203 38.3171 146.467 38.5486H146.558C146.54 38.9134 146.54 39.2466 146.544 39.5974Z" fill="#04F606"/>
<path d="M194.334 37.7839C193.713 37.0261 193.741 36.2404 194.499 35.202C193.593 35.5528 192.94 35.9387 192.393 35.1845C191.996 34.6548 191.203 34.4268 191.192 33.5989C191.543 33.5989 191.729 33.8515 191.961 34.0409C193.509 35.3143 193.509 35.3178 194.822 33.6901C194.843 33.6518 194.859 33.6104 194.868 33.5673C195.921 32.7079 197.125 32.0063 198.076 31.003C199.063 30.7961 199.863 30.2067 200.713 29.7086V29.7297C200.853 29.7489 200.996 29.7315 201.128 29.6793C201.259 29.6271 201.375 29.5417 201.464 29.4315L201.973 29.3157L202.286 29.1509V29.1754C205.491 28.4177 208.714 27.9161 211.971 28.8246C212.831 29.0667 213.649 29.442 214.569 29.4139C214.713 29.5929 214.861 29.656 215.033 29.449L215.306 29.6735C215.737 30.126 216.314 30.4117 216.935 30.4804C218.308 31.5994 219.884 32.4518 221.148 33.7041C223.75 36.2649 225.27 39.4361 226.414 42.8247C226.435 42.9791 226.456 43.1334 226.481 43.2913C226.481 43.5509 226.481 43.807 226.481 44.0665L226.523 50.0791C226.477 51.6577 225.722 53.0573 225.375 54.5622C224.171 56.7126 222.963 58.8454 221.162 60.5818C220.544 61.1747 220.109 61.308 219.449 60.7818V60.8204C219.449 59.8732 220.572 59.6698 220.73 58.8349L220.678 58.7753L220.723 58.8384C221.022 58.8384 221.162 58.6174 221.331 58.414C224.094 55.0955 225.593 51.335 225.357 46.9676C225.357 46.6168 225.357 46.266 225.34 45.9152C225.319 45.3013 225.603 44.6383 225.077 44.0946L224.982 43.5088C224.631 41.2427 223.876 39.1695 222.331 37.4296V37.412C222.328 37.3019 222.297 37.1943 222.241 37.0993C222.185 37.0042 222.106 36.9248 222.012 36.8683L221.696 36.4684C221.701 36.4336 221.697 36.3982 221.687 36.3648C221.676 36.3313 221.659 36.3006 221.635 36.2748C221.611 36.249 221.582 36.2288 221.549 36.2155C221.517 36.2023 221.482 36.1964 221.447 36.1983L221.194 35.9071C221.2 35.8323 221.176 35.7582 221.127 35.701C221.078 35.6438 221.009 35.6082 220.934 35.6019L220.955 35.623L220.667 35.3458H220.695C220.693 35.249 220.656 35.1561 220.592 35.0835C220.528 35.011 220.44 34.9635 220.344 34.9495L220.302 34.9038C220.29 34.8028 220.239 34.7102 220.161 34.645C220.083 34.5799 219.983 34.5469 219.881 34.5531V34.518C219.862 34.3879 219.795 34.2693 219.694 34.1852C219.593 34.101 219.465 34.0571 219.333 34.0619C219.049 33.5508 218.575 33.1725 218.013 33.0096C217.837 32.8223 217.644 32.6509 217.437 32.4974C214.458 30.5609 210.953 29.5884 207.401 29.7121C205.61 29.7753 203.764 29.8595 202.163 30.8943V30.8732C199.07 31.645 196.753 33.5779 194.668 35.8545C194.387 36.1597 194.236 36.5245 194.541 36.9069C195.349 37.9593 195.478 39.2221 195.83 40.4148C195.865 40.927 195.903 41.4426 195.938 41.9548L195.886 42.6563C195.638 43.0686 195.53 43.5495 195.577 44.028V44.0069C195.23 44.4273 195.042 44.9564 195.047 45.5013V45.5539C194.864 45.596 194.811 45.7223 194.815 45.9047C194.804 45.9117 194.795 45.9213 194.789 45.9326C194.783 45.944 194.78 45.9567 194.78 45.9696C194.78 45.9825 194.783 45.9952 194.789 46.0066C194.795 46.0179 194.804 46.0275 194.815 46.0345L193.814 47.2517C193.744 45.6837 194.934 44.505 195.124 43.0177C195.679 41.9162 195.324 40.8814 194.878 39.8605C194.878 39.6851 194.878 39.5098 194.878 39.3414C194.878 38.9625 194.878 38.5837 194.355 38.5486C194.345 38.303 194.338 38.0434 194.334 37.7839Z" fill="#18E019"/>
<path d="M218.083 51.1736V51.0578C219.224 48.904 219.207 46.6624 218.512 44.3928C217.574 41.3409 215.805 38.9906 212.747 37.7698C212.582 37.5877 212.379 37.4445 212.152 37.3505C211.925 37.2565 211.68 37.214 211.434 37.2261C206.941 35.4335 200.923 37.9733 199.228 41.8881H199.259C199.185 41.8943 199.117 41.9281 199.067 41.9827C199.016 42.0373 198.989 42.1087 198.989 42.1828C197.796 43.9466 197.304 46.0918 197.609 48.1989C197.764 49.353 197.553 49.7424 196.423 49.6021C196.254 47.9535 196.265 46.2916 196.454 44.6454C196.739 44.1584 196.913 43.6146 196.963 43.0527C197.666 41.4672 198.719 40.0956 199.663 38.6714L203.058 36.3386H203.089L203.188 36.3561L203.272 36.3C203.837 36.2374 204.379 36.0466 204.859 35.7422L205.368 35.644L206.123 35.616L210.606 35.644L211.659 35.7282C211.877 36.5105 212.533 36.1 212.993 36.2193L213.084 36.2719H213.186C214.13 36.7034 214.717 37.7277 215.844 37.861C215.931 38.0692 216.067 38.254 216.238 38.4007C216.41 38.5475 216.614 38.6522 216.834 38.7064V38.731C217.135 39.2046 217.336 39.7834 217.929 39.9798L217.992 39.9202L217.925 39.9763C218.111 40.5306 218.319 41.0708 218.898 41.3444V41.3725C218.975 41.9092 219.038 42.4529 219.502 42.8317C220.295 45.2873 220.344 47.8235 220.021 50.3703H220.039C219.512 51.1651 219.153 52.0592 218.986 52.9977C218.111 53.8922 217.609 55.1025 216.612 55.8812C216.3 56.1303 216.044 56.4811 215.636 56.0566C215.229 55.6322 215.366 55.3375 215.721 54.9411C216.17 54.4395 216.823 54.0711 216.946 53.3169C217.579 52.7689 217.984 52.0046 218.083 51.1736ZM210.314 36.307H208.706C209.517 36.5105 209.925 36.507 210.325 36.293L210.314 36.307ZM206.642 36.3386C206.817 36.4346 207.012 36.4872 207.211 36.4921C207.41 36.497 207.608 36.454 207.787 36.3666C207.615 36.2694 207.422 36.2147 207.225 36.2074C207.027 36.2001 206.831 36.2403 206.653 36.3246L206.642 36.3386Z" fill="#18E019"/>
<path d="M95.4643 66.1805C95.9663 66.4015 95.7733 66.854 95.7733 67.2083C95.7733 71.3056 95.7557 75.3993 95.7417 79.486L95.4784 79.5562C88.0359 79.5375 80.5945 79.5211 73.1543 79.5071C68.6888 79.5071 64.2233 79.5351 59.7578 79.5492L59.4067 79.2335C59.4067 71.7826 59.4149 64.3295 59.4313 56.874C59.4313 51.1631 59.4313 45.4533 59.4313 39.7448C59.4313 39.2326 59.3049 38.6924 59.6735 38.2328L59.7999 38.8397L59.7789 39.8921C59.7789 41.2953 59.7789 42.6985 59.7789 44.1016V49.3635V71.3652C59.7789 73.6769 59.7789 75.9886 59.7227 78.3004C59.7227 79.0511 60.0106 79.272 60.7302 79.272C71.9642 79.2557 83.1982 79.2557 94.4322 79.272C95.2502 79.272 95.4854 78.9879 95.4854 78.2197C95.4433 75.8623 95.4538 73.5085 95.4468 71.1512L95.4257 67.2118L95.4643 66.1805Z" fill="#428A41"/>
<path d="M115.987 23.0751C116.03 22.577 116.451 22.3315 116.767 22.0719C120.811 18.7499 121.429 14.4807 120.249 9.70293C119.822 7.8924 118.841 6.26016 117.441 5.03388C116.086 3.77804 114.875 2.81336 113.088 2.50817C112.835 2.46608 112.631 2.12932 112.385 1.92937C113.849 1.65224 115.011 2.39592 116.145 3.10101C120.811 6.00557 122.078 11.2745 120.871 16.7363C120.344 19.1938 118.891 21.3545 116.812 22.7699C116.706 22.8784 116.577 22.962 116.434 23.0148C116.291 23.0675 116.139 23.0881 115.987 23.0751Z" fill="#22E425"/>
<path d="M98.5923 41.9828C98.824 40.506 98.3571 38.9765 98.9433 37.5277C99.4875 38.8081 99.0452 40.1482 99.1926 41.4531V65.8402H98.7187C98.6836 61.8201 98.6508 57.8 98.6204 53.78C98.6204 52.903 98.6204 52.026 98.6204 51.149C98.604 48.0971 98.5946 45.0417 98.5923 41.9828Z" fill="#18E019"/>
<path d="M5.10089 84.2323C5.07281 90.1934 5.04705 96.1569 5.02365 102.123C4.67259 101.663 4.77792 101.119 4.77441 100.607C4.77441 85.605 4.76739 70.5993 4.75335 55.5901C4.75335 55.0744 4.67611 54.5377 5.00961 54.0746H5.10441C5.10441 54.2465 5.10441 54.4254 5.10441 54.5973C5.09973 64.4756 5.09855 74.3539 5.10089 84.2323Z" fill="#428A41"/>
<path d="M22.4154 32.0238C22.303 32.771 21.457 32.8412 21.1165 32.8973C19.0627 33.2481 17.5005 34.5285 15.8084 35.5002C14.4488 36.2339 13.2727 37.2652 12.368 38.517C12.0485 38.9906 11.5816 38.7731 11.1814 38.8678C12.5049 36.763 14.6253 35.6019 16.5807 34.2443C17.1811 33.8304 17.834 33.4936 18.4659 33.1183C19.8316 32.9324 20.9479 31.8449 22.4154 32.0238Z" fill="#18E019"/>
<path d="M145.972 41.7022H146.453C146.453 47.392 146.453 53.0807 146.453 58.7682H145.965C145.965 57.4563 145.965 56.1455 145.965 54.8358V41.7022H145.972Z" fill="#18E019"/>
<path d="M127.566 4.32529C127.601 4.49514 127.594 4.67113 127.545 4.8376C127.496 5.00407 127.407 5.15586 127.285 5.27944C125.091 7.48943 124.266 10.1905 124.41 13.26C124.466 14.4351 124.41 15.6173 124.41 16.7924C123.781 16.2452 124.034 15.484 123.981 14.8245C123.728 11.6674 123.981 8.63301 125.919 5.95647C126.334 5.29222 126.897 4.7337 127.566 4.32529Z" fill="#22E425"/>
<path d="M81.2991 55.0989L81.1832 55.1235H81.0639L81.0112 46.2274C81.037 44.3004 81.0627 42.3757 81.0885 40.4534C81.3763 41.0252 81.1657 41.6601 81.3131 42.2459L81.4079 48.0796C81.2254 49.5459 81.4711 50.9877 81.6572 52.4329C81.0042 53.2468 81.3693 54.2009 81.2991 55.0989Z" fill="#01C002"/>
<path d="M50.0123 74.7679L48.7906 75.4695C48.7497 75.3107 48.7448 75.1449 48.7764 74.984C48.808 74.8231 48.8752 74.6714 48.9732 74.5399C50.1729 73.9676 51.1786 73.0566 51.866 71.9195C52.3153 71.9475 52.4452 71.3231 52.9191 71.3968L52.877 71.8914L52.6418 72.165C52.5213 72.2076 52.4127 72.2781 52.3248 72.3708C52.2369 72.4635 52.1723 72.5757 52.1363 72.6982C52.0354 72.7284 51.948 72.7922 51.8886 72.8791C51.8291 72.9659 51.8013 73.0704 51.8098 73.1753V73.1472C51.5926 73.2056 51.3921 73.3136 51.2239 73.4628C51.0557 73.612 50.9246 73.7982 50.8408 74.0067C50.485 74.1573 50.1923 74.4262 50.0123 74.7679Z" fill="#03B903"/>
<path d="M28.3799 30.9293C28.7064 30.3716 29.3207 30.6487 29.7841 30.4453H33.9969C34.0285 30.5996 34.0566 30.7504 34.0846 30.9048L28.3799 30.9293Z" fill="#18E019"/>
<path d="M98.0902 10.4466V15.9611C97.4758 14.1742 97.4758 12.2335 98.0902 10.4466Z" fill="#428A41"/>
<path d="M5.64849 51.1736C5.64849 51.349 5.64849 51.5244 5.64849 51.7033C5.63091 51.7842 5.63091 51.8679 5.64849 51.9488C5.64849 52.2154 5.63093 52.4785 5.62391 52.7416C5.31146 53.124 6.42433 54.0501 5.12189 54.0571H5.0271C5.07625 52.7942 5.07275 51.5244 5.60636 50.3387C5.60636 50.6158 5.62742 50.8894 5.64849 51.1736Z" fill="#18E019"/>
<path d="M230.62 76.3535C230.588 77.5111 230.62 78.6827 230.093 79.7631C230.216 78.1285 230.515 76.4938 230.065 74.8521L230.564 75.6448C230.581 75.8869 230.602 76.1219 230.62 76.3535Z" fill="#18E019"/>
<path d="M152.319 35.9457C152.691 37.8513 152.691 39.8106 152.319 41.7162C152.287 40.7515 152.252 39.7869 152.221 38.8222V37.7944C152.252 37.177 152.287 36.5631 152.319 35.9457Z" fill="#18E019"/>
<path d="M147.053 16.0207C147.053 14.1498 147.053 12.2789 147.053 10.408C147.522 12.2496 147.522 14.1791 147.053 16.0207Z" fill="#428A41"/>
<path d="M5.64854 51.1736C5.62748 50.8965 5.60642 50.6228 5.58887 50.3492L5.81004 50.1002C6.21025 50.5176 6.3296 50.9 5.64854 51.1736Z" fill="#02E702"/>
<path d="M146.266 37.7418C146.348 37.7389 146.429 37.752 146.505 37.7803C146.484 38.0469 146.463 38.31 146.445 38.5731C146.182 38.3416 146.231 38.0399 146.266 37.7418Z" fill="#02E001"/>
<path d="M35.6714 62.3779C36.9598 60.88 37.5074 59.0664 37.8655 57.1792L38.0867 57.4072C38.1079 57.37 38.1233 57.3298 38.1323 57.2879C38.1604 56.3829 38.1885 55.4813 38.2131 54.5763H53.3087C53.6142 54.5763 53.9231 54.5973 54.225 54.5763C55.9136 54.4325 55.9101 54.429 56.0856 56.1057C56.1032 56.2671 56.0857 56.4565 56.6017 56.5302C56.1453 55.3971 57.5496 54.0501 55.8083 53.1977C55.7286 53.1614 55.6653 53.0967 55.6308 53.0162C55.5964 52.9358 55.5934 52.8453 55.6222 52.7627C55.6346 52.7205 55.6569 52.6819 55.6874 52.6501C55.7178 52.6184 55.7555 52.5945 55.7972 52.5803C55.8389 52.5662 55.8833 52.5624 55.9268 52.5691C55.9703 52.5758 56.0115 52.5929 56.047 52.6189C56.3735 52.8434 56.8545 52.2891 57.1002 52.8399C57.1494 52.9556 57.1002 53.1065 57.1423 53.2257C57.2933 53.6537 56.7913 54.5237 57.5952 54.4395C58.1429 54.3833 57.6479 53.6256 57.6268 53.2082C57.5882 52.4785 57.374 51.7629 57.7146 51.0543C58.0034 51.3879 58.1585 51.8165 58.1499 52.2576C58.5817 57.565 57.9252 62.6936 55.5345 67.517C55.3891 67.7259 55.2155 67.9136 55.0184 68.0748C55.0535 67.8152 54.9973 67.4749 55.1413 67.31C56.212 66.0998 54.9552 64.6791 55.524 63.4268C55.6117 63.2268 55.3449 63.076 55.1448 62.9707C54.5492 62.611 53.8642 62.4262 53.1683 62.4375C48.7906 62.4691 44.4163 62.4375 40.0386 62.4375C39.6524 62.4375 39.0486 62.6059 38.9222 62.2797C38.35 60.7713 37.5741 61.7745 36.9212 62.0973C36.4859 62.3007 36.1313 62.4972 35.6714 62.3779Z" fill="#02E702"/>
<path d="M26.1225 60.0907C26.2559 60.3398 26.3893 60.5889 26.5262 60.8344C24.8306 61.7254 22.9805 61.2343 21.2217 61.336C17.711 61.5395 14.1548 61.3852 10.6196 61.4062C9.95606 61.4062 9.19426 61.1501 8.7133 61.9149C8.61501 62.0762 8.36224 62.1253 8.29905 61.9149C7.99363 60.8625 6.38226 61.2308 6.37173 59.8768C6.02066 60.5152 6.1646 61.0449 6.11194 61.557C6.0663 61.992 6.31556 62.5708 5.58535 62.6971C5.58535 60.3819 5.58535 58.0631 5.58535 55.7479C5.58535 55.3129 5.81355 54.7341 5.10791 54.5622C5.10791 54.3868 5.10791 54.2115 5.10791 54.0396C6.41035 54.0396 5.29748 53.1065 5.60993 52.7241C6.81407 52.5101 6.58939 53.4923 6.70875 54.0291C7.08439 54.464 7.32662 52.8679 7.82161 54.1308C7.96906 54.5096 9.27149 54.5342 10.0473 54.5447C13.3684 54.5868 16.6894 54.5622 20.0105 54.5658C20.4177 54.5658 20.9654 54.5658 21.0882 54.236C21.4042 53.4187 22.1239 53.4467 22.7172 53.1135C23.8616 52.4645 24.0266 53.0258 24.1636 54.2641C24.5848 53.3836 24.634 52.7311 25.0623 52.261C25.4906 51.791 25.5116 52.2856 25.6591 52.4856C25.5187 53.4187 25.6801 54.4009 25.1465 55.2919C24.9289 55.6427 25.2062 56.0391 25.3291 56.4039C25.0061 57.2283 24.627 58.0561 25.5538 58.7647C25.645 58.9472 25.7398 59.1155 25.8346 59.3085C25.8346 59.5926 25.796 59.9153 26.1225 60.0907Z" fill="#02E702"/>
<path d="M38.213 54.5763C38.1885 55.4813 38.1604 56.3829 38.1323 57.2879C38.1233 57.3298 38.1079 57.37 38.0866 57.4072L37.8655 57.1792C37.8655 56.1361 37.8655 55.0966 37.8655 54.0606C38.4237 53.6607 38.0305 54.2816 38.1639 54.3483C38.2095 54.3693 38.199 54.4991 38.213 54.5763Z" fill="#428A41"/>
<path d="M6.77899 49.8195C7.33718 50.4159 7.13006 50.8403 7.07038 51.4191C6.44198 50.921 6.67016 50.472 6.77899 49.8195Z" fill="#02E702"/>
<path d="M56.4473 46.6133C56.837 46.6449 56.7773 47.1324 57.0897 47.2447C57.0897 47.4131 57.0687 47.5955 57.0546 47.7463C56.3771 47.6271 56.2191 47.2272 56.4473 46.6133Z" fill="#03FB05"/>
<path d="M56.0963 45.6346C56.5772 45.838 56.5913 46.2134 56.4473 46.6378C55.8505 46.48 56.1314 45.9994 56.0963 45.6346Z" fill="#03FB05"/>
<path d="M26.1119 51.1736C26.1301 51.2557 26.1181 51.3417 26.0782 51.4157C26.0382 51.4898 25.9729 51.547 25.8943 51.577L25.8206 51.1771L26.1119 51.1736Z" fill="#02E702"/>
<path d="M25.8206 51.1736L25.7188 51.1069L25.8381 51.156L25.8206 51.1736Z" fill="#02E702"/>
<path d="M5.6311 51.9418C5.61353 51.8609 5.61353 51.7772 5.6311 51.6963C5.66012 51.7528 5.68475 51.8114 5.70481 51.8717C5.70481 51.8717 5.65919 51.9208 5.6311 51.9418Z" fill="#02E702"/>
<path d="M51.8659 71.9054C51.1786 73.0425 50.1729 73.9535 48.9731 74.5258C48.0323 74.6626 47.8322 75.7816 46.958 76.0272C46.772 76.0763 46.6421 76.3149 46.4736 76.4552C45.796 77.027 44.9289 75.7536 44.785 76.2587C44.6164 76.8516 44.7569 77.4093 43.9915 77.6619C43.4218 77.8533 42.8817 78.1237 42.3872 78.4652C41.836 78.8581 41.1199 78.574 40.5687 79.0931C40.2457 79.3983 39.6033 79.3176 39.0872 79.058C39.6594 77.8618 40.8425 78.3214 41.7096 77.9075C40.3651 77.6865 39.024 77.3216 37.7532 78.0408C37.5228 78.1985 37.2624 78.307 36.9881 78.3595C36.7139 78.412 36.4317 78.4074 36.1593 78.3459C33.3534 77.6989 30.4388 77.6809 27.625 78.2933C26.5508 78.5038 25.4098 78.4301 24.3005 78.4336C19.6196 78.4336 14.9388 78.4336 10.258 78.4336C9.74193 78.4336 9.22586 78.5003 8.7765 78.0829C8.32714 77.6654 8.33418 76.8445 7.12652 77.4514C6.3577 77.8408 6.11546 78.0057 6.11195 78.7283C6.11195 79.5141 6.11195 80.2999 6.11195 81.0856C6.11195 81.4996 6.23482 82.0047 5.58887 82.1029V73.1998C6.24886 73.1156 6.10142 72.6 6.11546 72.1895C6.1295 71.7791 6.17513 71.4318 6.71928 71.3652C7.92693 71.2178 9.12756 70.8706 10.3317 70.8671C21.8957 70.8285 33.4597 70.8425 45.0237 70.8425C45.459 70.8425 45.9856 70.7513 46.2313 71.1758C46.7053 71.9861 47.4355 71.9159 48.1797 71.8773C48.1973 72.4386 48.3131 73.3577 48.9766 72.7438C49.6401 72.1299 51.0163 72.0422 50.9321 70.6846C50.9321 70.4812 51.1918 70.2461 51.3533 70.0462C51.578 69.7761 51.9045 69.4534 52.2099 69.6954C52.5153 69.9374 52.4557 70.397 52.1853 70.7478C51.9993 70.9828 51.743 71.1652 51.5675 71.4073C51.2972 71.7826 51.6131 71.8352 51.8659 71.9054Z" fill="#01D901"/>
<path d="M26.0873 94.4543C26.0873 96.9099 26.0874 99.39 26.0347 101.856C26.0136 102.908 25.1711 103.568 23.9073 103.645C22.0291 103.754 20.186 103.235 18.2903 103.368C16.2927 103.505 14.2741 103.157 12.2906 103.631C12.1201 103.674 11.9415 103.674 11.771 103.631C10.1246 103.112 8.87126 103.319 8.69573 105.364C8.46403 105.29 8.32009 105.266 8.32009 105.241C8.32009 104.08 8.08137 103.203 6.59287 103.179C5.91532 103.179 5.50458 102.614 5.53968 101.775C5.6134 100.646 5.55723 99.5093 5.56074 98.3762C5.65143 98.2934 5.72384 98.1926 5.77339 98.0802C5.82294 97.9679 5.84853 97.8465 5.84853 97.7237C5.84853 97.601 5.82294 97.4795 5.77339 97.3672C5.72384 97.2549 5.65143 97.1541 5.56074 97.0713C5.56074 96.8924 5.56074 96.7205 5.56074 96.5416C6.37872 96.4679 6.35063 95.8715 6.35063 95.2857C6.35063 94.3596 6.35063 93.43 6.35063 92.311C7.21074 92.8337 7.1019 93.4195 7.15105 93.9597C7.20019 94.4999 7.31255 94.9875 7.40734 95.4997C7.43893 95.6646 7.45647 95.8926 7.68115 95.8715C7.82509 95.8715 8.07083 95.7102 8.07434 95.619C8.11296 93.865 9.37328 94.4473 10.3036 94.4473C15.5719 94.4473 20.8331 94.4497 26.0873 94.4543ZM6.39276 102.06C6.71574 101.54 6.71574 101.204 6.39276 100.825C6.0417 101.235 6.0417 101.568 6.39276 102.06Z" fill="#01C002"/>
<path d="M5.58898 79.7561V88.9469C5.00622 87.3999 5.47664 85.7898 5.32569 84.2217C5.4626 82.7449 5.00973 81.2154 5.58898 79.7561Z" fill="#01C002"/>
<path d="M26.8281 80.3911C26.7777 80.4058 26.726 80.4152 26.6736 80.4191C26.6736 80.2823 26.5402 80.1034 26.779 80.0262L26.8281 80.3911Z" fill="#01C002"/>
<path d="M196.985 69.0254C197.792 67.4749 198.066 65.7525 198.582 64.1143C200.306 58.6069 201.784 53.0223 203.746 47.5885C204.353 45.9082 205.379 45.4416 207.639 45.6276C209.223 45.7539 210.799 46.943 211.08 48.2164C211.269 49.0513 210.792 49.7564 210.564 50.479C208.222 57.9228 205.81 65.3456 203.423 72.7789C203.23 73.3823 203.072 74.0733 203.83 74.3575C204.659 74.6697 204.884 73.912 205.066 73.3612C205.876 70.8916 206.66 68.4127 207.418 65.9244C208.12 63.6267 209.496 62.6831 211.487 63.1917C214.074 63.8547 214.998 65.2965 214.52 67.752C214.008 70.2848 212.863 72.5965 212.028 75.0134C211.803 75.6624 211.634 76.2658 212.354 76.571C213.074 76.8762 213.323 76.1535 213.53 75.6659C214.348 73.7541 215.156 71.8353 215.903 69.8954C216.606 68.0221 217.659 67.8748 219.73 68.3273C221.629 68.7378 222.605 70.1164 222.342 71.7826C222.012 73.8593 221.113 75.7606 220.415 77.7216C220.332 77.8721 220.257 78.0266 220.19 78.1846C220.067 78.7108 219.979 79.2721 220.604 79.5387C221.229 79.8053 221.552 79.3562 221.752 78.8371C222.232 77.5836 222.7 76.3301 223.156 75.0766C223.676 73.6734 224.392 73.2349 225.842 73.3858C228.342 73.6454 229.426 74.9608 229.261 77.5356C229.108 79.1782 228.809 80.804 228.37 82.3941C227.38 86.4458 226.197 90.4343 224.919 94.4087C222.556 101.754 217.736 106.686 210.525 109.019C204.206 111.075 198.508 109.489 193.8 104.74C189.988 100.881 187.973 96.068 186.502 90.9885C184.532 84.1972 183.918 77.2129 183.774 70.176C183.774 69.6989 183.82 69.2184 183.844 68.7413C185.431 68.2712 186.653 68.7027 187.745 69.9831C188.475 70.846 188.879 71.8949 189.602 72.7403C189.583 72.7732 189.577 72.8121 189.585 72.8492C189.594 72.8863 189.616 72.9188 189.647 72.9403C189.78 73.8887 190.129 74.7939 190.669 75.5852C191.048 77.4523 191.543 79.294 192.151 81.0997C192.256 81.4049 192.358 81.8013 192.803 81.8013C193.249 81.8013 193.386 81.4049 193.506 81.0997C193.927 79.8754 194.352 78.6441 194.664 77.3918C195.226 75.1292 196.23 72.9859 196.514 70.6496C196.708 70.4219 196.854 70.1569 196.941 69.8709C197.029 69.5849 197.057 69.284 197.023 68.9868L196.985 69.0254Z" fill="#FAFDFA"/>
<path d="M180.941 66.3699C185.154 66.3945 189.387 66.4716 193.607 66.4085C195.011 66.3874 196.044 66.5418 196.163 68.187L196.184 68.7377C195.661 69.2113 195.584 69.8848 195.408 70.4917C194.706 72.9473 194.004 75.4028 193.326 77.8829C193.246 78.1776 193.2 78.5845 192.835 78.5845C192.396 78.5845 192.536 78.1285 192.452 77.8829C191.659 75.3537 190.915 72.8139 189.644 70.4601C188.87 68.9362 187.523 67.7808 185.898 67.2469C183.714 66.5453 182.531 67.4854 182.521 69.8006C182.521 70.1514 182.521 70.5022 182.521 70.853C182.521 71.0354 182.521 71.2038 182.521 71.3932C182.573 71.8352 182.359 72.3228 182.763 72.6982C182.763 73.4875 182.763 74.2767 182.763 75.0625C181.899 73.3436 180.305 73.7611 178.873 73.7541C175.162 73.7541 171.448 73.7541 167.737 73.7541C164.42 73.7541 161.102 73.733 157.785 73.7541C156.809 73.7541 155.738 73.1156 154.868 74.1294C154.717 74.3048 154.45 74.175 154.302 73.9891C154.155 73.8032 154.267 73.5927 154.302 73.3787C154.372 72.9297 155.324 72.5193 154.566 72.0913C153.913 71.7195 153.885 72.6771 153.512 72.9578C153.274 73.1332 153.112 73.4314 152.859 73.5647C152.199 73.9154 151.764 73.7611 151.729 72.9402V72.9122C153.277 72.0036 153.681 70.2181 154.769 68.9552L154.33 68.7167C154.618 67.6994 155.317 66.9417 155.952 66.1384C156.851 67.4082 158.248 67.6678 159.61 67.6784C165.859 67.738 172.112 67.752 178.361 67.6503C179.238 67.6222 180.488 67.6082 180.941 66.3699Z" fill="#01C002"/>
<path d="M182.51 70.8179C182.51 70.4671 182.51 70.1164 182.51 69.7656C182.51 67.4503 183.704 66.4997 185.887 67.2118C187.512 67.7457 188.859 68.9011 189.633 70.4251C190.915 72.7789 191.659 75.3361 192.442 77.8478C192.526 78.1074 192.386 78.5494 192.824 78.5494C193.176 78.5494 193.235 78.16 193.316 77.8478C194.018 75.3923 194.696 72.9367 195.398 70.4566C195.573 69.8357 195.65 69.1622 196.174 68.7027C196.549 68.4957 197.027 68.0011 196.974 68.9903C196.202 69.3621 196.465 70.0427 196.465 70.6531C196.181 72.9894 195.177 75.1327 194.615 77.3953C194.302 78.6511 193.878 79.8789 193.456 81.1032C193.355 81.3978 193.228 81.8048 192.754 81.8048C192.28 81.8048 192.207 81.3943 192.101 81.1032C191.494 79.2975 190.999 77.4558 190.62 75.5887C190.679 74.5363 190.62 73.5717 189.598 72.9437C189.567 72.9223 189.545 72.8898 189.536 72.8527C189.528 72.8156 189.534 72.7767 189.553 72.7438C189.352 70.4812 187.007 67.2504 183.735 68.2361C183.233 68.387 183.799 68.5869 183.795 68.7448C182.742 69.2218 183.493 70.1479 183.262 70.8495L182.51 70.8179Z" fill="#18E019"/>
<path d="M182.51 70.818L183.293 70.839C183.325 71.2746 183.325 71.7119 183.293 72.1475C182.977 74.5048 183.809 76.7744 183.813 79.1072C183.813 79.7246 183.837 80.3385 183.325 80.805C183.272 80.4156 183.223 80.0298 183.17 79.6404C183.104 78.0969 182.605 76.592 182.749 75.0275C182.749 74.2417 182.749 73.4524 182.749 72.6631C182.703 72.2211 182.932 71.73 182.507 71.3582C182.517 71.1933 182.514 71.0144 182.51 70.818Z" fill="#04F606"/>
<path d="M208.008 110.808C206.299 111.221 204.515 111.214 202.809 110.787L208.008 110.808Z" fill="#428A41"/>
<path d="M185.944 40.9304C186.163 40.7491 186.439 40.6498 186.723 40.6498C187.008 40.6498 187.283 40.7491 187.502 40.9304C187.597 41.6075 188.148 41.411 188.556 41.4777C188.58 41.6496 188.598 41.8565 188.819 41.8565C189.04 41.8565 189.054 41.6496 189.075 41.4777L189.612 41.4461C189.612 42.26 189.633 43.0738 189.612 43.9017C189.577 44.8593 189.869 45.8872 189.089 46.708C188.387 46.3572 187.713 45.9187 186.93 45.9398C182.749 46.0415 178.561 45.6311 174.387 46.1573C173.872 46.264 173.337 46.2076 172.856 45.9959C171.645 45.3785 170.897 45.7047 170.399 46.9746C170.171 47.5429 169.928 48.1147 169.124 47.7534C169.507 47.0939 169.739 46.3502 170.279 45.7784C170.922 45.0768 170.602 44.2805 169.64 44.1086C169.208 44.0635 168.772 44.0553 168.338 44.0841H155.945C152.786 44.0841 152.786 44.0841 152.786 40.8708C152.786 40.1692 152.786 39.4677 152.786 38.7941C152.786 38.1206 153.102 37.7418 153.807 37.7803C153.807 38.1311 153.807 38.4819 153.807 38.8327C153.183 39.3554 152.733 39.8851 153.807 40.3973C153.874 40.6744 153.765 41.0988 154.194 41.0988C154.724 41.0988 154.632 40.6498 154.636 40.3236C154.636 39.0151 154.636 37.7067 154.636 36.0439C155.482 37.0191 156.089 37.64 156.602 38.3346C157.114 39.0292 157.529 39.7974 158.171 40.3902C158.494 40.6919 158.642 41.3514 159.266 41.1234C159.891 40.8954 159.526 40.285 159.663 39.8605C160.158 39.5483 160.66 40.527 161.159 39.8605L161.19 41.176C161.036 41.1025 160.874 41.0494 160.706 41.0181C160.551 41.0181 160.46 41.2181 160.569 41.2672C160.99 41.4566 161.246 41.9688 161.773 41.9232C162.433 41.846 162.191 41.2918 162.247 40.9024C162.247 40.8217 162.247 40.741 162.247 40.6638C162.352 40.2359 162.096 39.3519 162.577 39.4817C163.174 39.6395 164.146 38.8818 164.473 40.1236C164.554 40.4237 164.741 40.6845 164.998 40.8584C165.256 41.0323 165.568 41.1077 165.877 41.0708C166.036 41.037 166.202 41.058 166.347 41.1304C167.127 41.7162 167.123 41.7233 167.783 40.9234C168.505 41.2481 169.303 41.3681 170.089 41.2703C170.874 41.1725 171.618 40.8608 172.238 40.3692C172.273 40.6077 172.193 40.9725 172.466 41.0146C172.818 41.0673 172.758 40.7024 172.772 40.4709C172.786 40.2394 172.772 40.057 172.772 39.85C174.18 39.9225 175.593 39.8437 176.985 39.615C177.118 40.2429 176.634 41.39 178.08 40.9199C178.547 40.9199 178.996 40.9936 179.133 40.306C179.228 39.843 179.582 39.4641 180.155 39.8816C180.239 40.3096 179.853 40.9164 180.506 41.1164C180.902 41.2392 181.166 40.8743 181.166 40.499C181.166 39.5694 181.643 39.2958 182.489 39.3554C183.335 39.415 184.381 39.1133 184.634 40.4464C184.785 41.2497 185.259 41.4461 185.944 40.9304ZM186.881 41.6531C186.811 41.6215 186.723 41.5514 186.67 41.5724C186.618 41.5935 186.604 41.7022 186.576 41.7759C186.646 41.8039 186.734 41.8776 186.783 41.8565C186.832 41.8355 186.839 41.7232 186.881 41.6531Z" fill="#02F002"/>
<path d="M187.499 40.6919C185.171 38.8888 185.926 35.2582 188.924 34.4548C189.501 34.3144 190.106 34.3514 190.661 34.5612C191.217 34.7709 191.695 35.1435 192.035 35.63C192.238 35.9492 192.386 36.3316 192.077 36.5701C191.768 36.8087 191.547 36.4228 191.35 36.2193C190.349 35.1073 189.423 34.8828 188.426 35.5177C187.372 36.1948 186.934 37.7768 187.471 39.0081C188.008 40.2394 188.938 40.6709 190.241 40.3762C190.527 40.3336 190.789 40.192 190.982 39.9759C191.174 39.7599 191.285 39.4831 191.294 39.194C191.294 38.6117 190.683 38.9239 190.342 38.8432C190.002 38.7626 189.64 38.8432 189.686 38.4047C189.732 37.9663 190.118 38.054 190.413 38.0364C192.73 37.8189 192.73 37.8154 192.789 40.6604C192.789 40.8323 192.765 41.0111 192.754 41.1725L191.701 40.9235C191.224 40.478 190.957 40.9445 190.648 41.1725L190.104 41.4286L189.612 41.4496L187.499 40.6919Z" fill="#03B903"/>
<path d="M153.818 38.8362C153.818 38.4854 153.818 38.1346 153.818 37.7838C153.818 37.0437 153.818 36.3035 153.85 35.5633C153.85 35.2125 153.635 34.6688 154.116 34.5109C154.597 34.3531 154.934 34.7355 155.208 35.0898C156.047 36.1877 156.883 37.2892 157.701 38.4012C157.96 38.752 158.189 39.2817 158.67 39.0783C159.049 38.9169 158.81 38.3767 158.821 38.0048C158.852 37.1314 158.821 36.2509 158.842 35.3879C158.842 34.8231 158.968 34.3741 159.656 34.8968V35.665C159.656 37.0682 159.656 38.4714 159.656 39.8746C159.523 40.299 159.881 40.9269 159.263 41.1374C158.645 41.3479 158.491 40.7059 158.168 40.4043C157.525 39.8114 157.114 39.0397 156.598 38.3486C156.082 37.6576 155.478 37.0331 154.632 36.0579C154.632 37.7207 154.632 39.0291 154.632 40.3376C154.632 40.6638 154.72 41.1269 154.19 41.1129C153.762 41.1129 153.871 40.6744 153.804 40.4113C153.839 39.8816 153.839 39.3589 153.818 38.8362Z" fill="#03B903"/>
<path d="M172.245 40.3867C171.625 40.8784 170.881 41.1901 170.095 41.2878C169.31 41.3856 168.512 41.2656 167.79 40.941L167.502 40.6639L167.271 40.4359L166.477 39.3589C166.477 38.531 166.435 37.6997 166.477 36.8753C166.554 35.6931 167.685 34.6197 169.001 34.3917C170.216 34.1812 171.687 34.7846 172.133 35.7107C172.266 35.9913 172.659 36.3456 172.273 36.6263C171.887 36.9069 171.571 36.6262 171.339 36.2404C171.148 35.8645 170.838 35.5618 170.457 35.3787C170.077 35.1956 169.647 35.1422 169.233 35.2266C168.78 35.325 168.368 35.558 168.051 35.8948C167.733 36.2316 167.525 36.6566 167.453 37.1138C167.102 38.7275 168.306 40.6498 169.777 40.4288C170.078 40.4037 170.367 40.3047 170.62 40.1407C170.873 39.9767 171.082 39.7527 171.227 39.4887C171.332 39.2491 171.518 39.0536 171.752 38.9358C171.986 38.8181 172.253 38.7853 172.508 38.8432C172.5 38.9468 172.519 39.0509 172.564 39.1446C172.609 39.2383 172.679 39.3183 172.765 39.3765C172.765 39.5378 172.765 39.7027 172.765 39.8641C172.695 39.8581 172.624 39.8676 172.558 39.8918C172.492 39.916 172.432 39.9544 172.383 40.0042C172.333 40.0541 172.295 40.1141 172.272 40.1802C172.248 40.2463 172.239 40.3168 172.245 40.3867Z" fill="#03B903"/>
<path d="M185.944 40.9304C185.242 41.4461 184.785 41.2497 184.634 40.4534C184.381 39.1204 183.367 39.422 182.489 39.3624C181.612 39.3028 181.162 39.5764 181.166 40.506C181.166 40.8813 180.902 41.2462 180.506 41.1234C179.856 40.9234 180.242 40.3166 180.155 39.8886C180.952 38.4854 181.394 36.9665 182.029 35.5107C182.194 35.1283 182.247 34.4829 182.953 34.6513C183.472 34.7776 183.655 35.1915 183.841 35.658C184.599 37.3945 184.968 39.2817 185.944 40.9304ZM182.914 38.5626C183.244 38.5065 183.911 38.7029 183.732 38.0048C183.574 37.391 183.602 36.3526 182.868 36.3316C182.135 36.3105 182.191 37.3173 182.04 37.9101C181.889 38.503 182.394 38.5766 182.914 38.5626Z" fill="#03B903"/>
<path d="M192.754 41.176C192.754 41.0076 192.775 40.8252 192.789 40.6638C193.741 40.2394 193.232 39.401 193.256 38.7696C193.288 37.9698 193.586 37.6926 194.334 37.7838C194.334 38.0434 194.334 38.303 194.334 38.5626C194.001 38.8257 193.983 39.0853 194.334 39.3484C194.327 39.4205 194.336 39.4933 194.361 39.5612C194.387 39.6291 194.427 39.6905 194.479 39.7405C194.532 39.7906 194.595 39.828 194.664 39.85C194.733 39.872 194.806 39.878 194.878 39.8675C195.324 40.8919 195.679 41.9267 195.124 43.0247C195.134 42.9206 195.115 42.8157 195.068 42.7221C195.022 42.6284 194.95 42.5497 194.861 42.495C194.818 42.3827 194.773 42.2705 194.727 42.1442L194.594 42.495C193.653 43.4456 192.624 44.1647 191.181 43.8069C191.181 42.9791 191.045 42.1231 191.708 41.4461C192.122 41.5794 192.758 42.5651 192.754 41.176Z" fill="#02F002"/>
<path d="M161.211 41.1935L161.18 39.878C161.18 38.3521 161.218 36.8297 161.204 35.3177C161.204 34.56 161.446 34.3566 162.233 34.4723C163.409 34.6477 164.61 34.6477 165.898 34.7319C165.666 35.2967 165.329 35.4335 164.925 35.3072C164.322 35.1248 163.711 35.2336 163.107 35.188C162.205 35.1213 162.001 35.6159 162.008 36.4017C162.015 37.1875 162.254 37.5628 163.061 37.5242C163.63 37.4997 164.199 37.5032 164.764 37.5242C165.329 37.5453 165.617 37.7803 165.15 38.3311H163.339H162.524L162.286 38.5415C162.091 38.8612 161.986 39.2274 161.983 39.6016C161.979 39.9757 162.076 40.3438 162.264 40.6673C162.264 40.7445 162.264 40.8252 162.264 40.9059C161.962 41.1313 161.586 41.234 161.211 41.1935Z" fill="#03B903"/>
<path d="M178.062 40.9269C176.609 41.397 177.1 40.2499 176.967 39.622C176.967 39.1414 176.967 38.6608 176.967 38.1802C177.023 37.3537 177.006 36.5238 176.918 35.7001C176.721 34.6478 175.485 35.5914 174.882 34.7495H180.021C179.919 34.9179 179.849 35.1003 179.803 35.1003C178.108 34.9249 177.887 35.8861 178.003 37.2612C178.132 38.4784 178.062 39.7062 178.062 40.9269Z" fill="#03B903"/>
<path d="M152.305 32.0694C152.54 31.4976 153.053 31.7186 153.439 31.7186C163.919 31.7046 174.397 31.7046 184.873 31.7186C185.245 31.7186 185.67 31.5713 185.972 31.9467C183.047 31.9677 180.123 31.9958 177.195 32.0028L152.305 32.0694Z" fill="#428A41"/>
<path d="M155.945 44.0806H168.306L168.594 44.6138C164.199 44.7471 159.817 44.7892 155.412 44.5927L155.945 44.0806Z" fill="#18E019"/>
<path d="M166.477 39.3589C166.379 40.0044 165.884 39.8711 165.466 39.8641C165.048 39.857 164.862 39.6536 164.947 39.2887C165.076 38.7029 165.333 39.1274 165.586 39.2186C165.876 39.2936 166.174 39.3383 166.474 39.3519L166.477 39.3589Z" fill="#02F002"/>
<path d="M187.499 40.6919L189.605 41.4461L189.068 41.4777H188.549C188.138 41.411 187.587 41.6075 187.495 40.9304C187.502 40.8497 187.499 40.7726 187.499 40.6919Z" fill="#18E019"/>
<path d="M152.596 44.5857C151.982 44.056 152.357 43.3825 152.333 42.7651C152.754 43.3264 152.452 43.9894 152.596 44.5857Z" fill="#18E019"/>
<path d="M163.339 38.3451H165.15C164.88 38.5179 164.565 38.6097 164.244 38.6097C163.923 38.6097 163.609 38.5179 163.339 38.3451Z" fill="#02F002"/>
<path d="M179.351 38.524C179.256 38.3802 179.158 38.296 179.147 38.2013C179.147 38.0294 179.214 37.868 179.421 37.9242C179.491 37.9452 179.565 38.1136 179.561 38.2118C179.558 38.31 179.466 38.3872 179.351 38.524Z" fill="#02F002"/>
<path d="M159.674 35.6721V34.9038C159.741 34.9424 159.798 34.9983 159.837 35.0658C159.876 35.1333 159.897 35.2099 159.897 35.288C159.897 35.366 159.876 35.4427 159.837 35.5101C159.798 35.5776 159.741 35.6335 159.674 35.6721Z" fill="#02F002"/>
<path d="M172.796 39.3694C172.71 39.3112 172.641 39.2312 172.596 39.1375C172.551 39.0438 172.532 38.9398 172.54 38.8362C172.631 38.8899 172.703 38.9692 172.749 39.064C172.795 39.1589 172.811 39.2652 172.796 39.3694Z" fill="#02F002"/>
<path d="M167.271 40.4358L167.502 40.6638L167.271 40.4358Z" fill="#02F002"/>
<path d="M162.286 38.5451L162.524 38.3346L162.286 38.5451Z" fill="#02F002"/>
<path d="M99.1785 48.5391V41.4531C105.147 39.7939 111.269 41.0322 117.311 40.6884C119.336 40.5726 119.154 40.5025 119.154 42.4774C119.154 43.179 119.021 43.9613 120.151 43.814C120.151 45.306 120.151 46.7945 120.151 48.2795C119.4 48.9425 118.648 48.241 117.89 48.2515C114 48.3076 110.111 48.2515 106.221 48.2901C103.876 48.3146 101.51 48.048 99.1785 48.5391Z" fill="#02E702"/>
<path d="M120.155 48.2796C120.155 46.7922 120.155 45.3037 120.155 43.814V41.9793C120.155 41.6285 120.155 41.2777 120.155 40.9269C120.193 40.1236 120.228 39.3203 120.267 38.517C120.618 38.9344 120.488 39.4361 120.488 39.9202C120.488 52.6399 120.46 65.3561 120.488 78.0759C120.488 79.1984 120.239 79.5702 119.038 79.5597C112.719 79.4966 106.428 79.5351 100.123 79.5176C99.642 79.5176 99.0697 79.7702 98.6941 79.2054C105.519 79.2054 112.347 79.2054 119.175 79.2545C120 79.2545 120.228 78.9563 120.228 78.2021C120.193 73.3963 120.193 68.5904 120.183 63.7881C120.183 59.3284 120.183 54.8686 120.183 50.4089L120.155 48.2796Z" fill="#428A41"/>
<path d="M120.155 40.9305C120.155 41.2812 120.155 41.632 120.155 41.9828C119.435 41.625 119.435 41.2777 120.155 40.9305Z" fill="#02E702"/>
<path d="M145.972 41.7022C145.972 43.8069 145.972 45.9117 145.972 48.0164C145.386 48.1819 144.782 48.2738 144.174 48.2901C139.063 48.2737 133.952 48.2737 128.843 48.2901C128.218 48.2901 127.544 48.2901 127.088 47.9568C126.456 47.4938 126 47.7463 125.477 48.0235C125.477 47.5008 125.477 46.9711 125.477 46.4519C125.477 43.6456 125.477 40.831 125.477 38.0083C125.477 37.3594 125.424 36.6929 126 36.2088C127.881 35.9352 129.788 36.0194 131.666 35.879C134.657 35.651 137.634 36.4298 140.614 35.7142C140.745 35.6998 140.877 35.7081 141.004 35.7387C143.005 36.0088 143.005 36.0088 143.914 34.4303C144.392 35.2546 144.666 36.0229 144.136 36.8858C143.665 37.64 144.062 37.8084 144.732 37.7944C145.403 37.7803 145.578 37.8786 145.628 38.731C145.666 39.6886 146.045 40.6814 145.972 41.7022Z" fill="#02F002"/>
<path d="M125.47 66.9101C125.47 64.4569 125.47 62.0014 125.47 59.5435C126.07 60.1609 126.691 60.452 127.527 59.8943C127.776 59.7294 128.205 59.8136 128.552 59.8101C130.472 59.8101 132.393 59.7645 134.309 59.8101C137.395 59.8978 140.495 59.533 143.571 60.0556C144.553 60.224 145.624 60.4801 145.628 58.884C145.628 58.8384 145.852 58.7928 145.979 58.7472C145.979 61.46 145.979 64.1716 145.979 66.8821C139.149 67.3005 132.301 67.3099 125.47 66.9101Z" fill="#02CD01"/>
<path d="M125.459 48.0165C125.982 47.7393 126.438 47.4868 127.07 47.9498C127.541 48.3006 128.215 48.2831 128.826 48.2831C133.937 48.2667 139.047 48.2667 144.157 48.2831C144.765 48.2668 145.369 48.1749 145.954 48.0094V54.8324C144.669 54.5061 143.356 54.5693 142.05 54.5693C137.413 54.5693 132.775 54.5517 128.138 54.5693C127.242 54.5693 126.344 54.1062 125.448 54.5693L125.459 48.0165Z" fill="#02E001"/>
<path d="M125.47 66.9101C132.296 67.3188 139.141 67.3188 145.968 66.9101V72.7649C145.305 72.7824 145.578 72.1159 145.224 72.0633C144.736 72.0106 145.098 72.7438 144.638 72.7649C143.964 71.3617 143.728 71.2915 142.584 72.3544C142.458 72.47 142.309 72.558 142.147 72.613C141.985 72.668 141.813 72.6886 141.643 72.6736C137.192 72.6736 132.737 72.6736 128.282 72.6736C127.355 72.6736 126.765 71.5722 125.694 71.9931C125.484 72.0773 125.473 71.4985 125.47 71.2073C125.463 69.7866 125.466 68.3624 125.47 66.9101Z" fill="#01C002"/>
<path d="M125.463 54.5763C126.358 54.1273 127.257 54.5973 128.152 54.5763C132.789 54.5412 137.427 54.5763 142.064 54.5763C143.37 54.5763 144.683 54.5131 145.968 54.8394C145.968 56.1467 145.968 57.4574 145.968 58.7717C145.845 58.8173 145.617 58.863 145.617 58.9086C145.617 60.5047 144.543 60.2486 143.56 60.0802C140.485 59.5575 137.385 59.9224 134.299 59.8347C132.382 59.782 130.462 59.8347 128.542 59.8347C128.19 59.8347 127.766 59.754 127.516 59.9188C126.681 60.4801 126.06 60.189 125.459 59.5681C125.464 57.903 125.465 56.239 125.463 54.5763Z" fill="#01D901"/>
<path d="M125.986 36.2053C125.41 36.6894 125.466 37.3559 125.463 38.0048C125.463 40.8112 125.463 43.6257 125.463 46.4484C124.792 46.1152 124.971 45.4907 124.964 44.9435C124.964 43.9402 124.985 42.9335 124.996 41.9302C125.164 41.6238 125.252 41.28 125.252 40.9304C125.252 40.5809 125.164 40.237 124.996 39.9307C124.971 39.5588 124.943 39.187 124.915 38.8152C124.827 37.2638 125.21 35.722 126.014 34.3917C126.228 34.9985 125.933 35.6019 125.986 36.2053Z" fill="#18E019"/>
<path d="M145.982 79.4685H125.199C125.55 79.0931 126.014 79.2299 126.435 79.2299C132.536 79.2299 138.64 79.2299 144.746 79.2299C145.168 79.237 145.628 79.1072 145.982 79.4685Z" fill="#428A41"/>
<path d="M124.989 39.9482C125.157 40.2546 125.245 40.5985 125.245 40.948C125.245 41.2975 125.157 41.6414 124.989 41.9478V39.9482Z" fill="#02E001"/>
<path d="M5.58891 79.7561C5.00966 81.2154 5.46253 82.7379 5.32561 84.2217C5.24838 84.2217 5.17465 84.2217 5.09741 84.2217V54.5728C5.79954 54.7446 5.57134 55.3235 5.57485 55.7584C5.59592 58.0737 5.57485 60.3924 5.57485 62.7076V79.7561H5.58891Z" fill="#18E019"/>
<path d="M5.59253 97.0853C5.68321 97.1681 5.75565 97.2689 5.80519 97.3812C5.85474 97.4936 5.88034 97.615 5.88034 97.7377C5.88034 97.8605 5.85474 97.9819 5.80519 98.0943C5.75565 98.2066 5.68321 98.3074 5.59253 98.3902V97.0853Z" fill="#02CD01"/>
<path d="M120.161 50.3773C120.161 54.837 120.161 59.2968 120.161 63.7565C119.53 63.8898 119.688 64.402 119.681 64.8089C119.681 66.0332 119.681 67.2644 119.681 68.4817C119.558 68.4361 119.329 68.3975 119.329 68.3449C119.259 66.9768 118.276 67.1627 117.378 67.1662C112.572 67.1662 107.765 67.1662 102.959 67.1662C101.906 67.1662 100.979 67.075 100.453 65.7175C100.193 66.5488 100.179 67.4012 99.1785 67.1557C99.1785 66.7137 99.1785 66.2682 99.1785 65.8262V62.6901C99.6805 62.6656 99.8525 62.2762 99.9122 61.8938C100.021 61.1922 99.8385 60.4135 100.298 59.8732C100.969 59.091 101.594 60.1083 102.303 60.1013C107.467 60.0416 112.631 60.1013 117.795 60.0557C119.143 60.0557 119.684 59.3541 119.684 57.9509V54.5763C119.684 53.5239 119.684 52.4715 119.684 51.4192C119.695 51.0263 119.526 50.5141 120.161 50.3773Z" fill="#02CD01"/>
<path d="M99.1785 67.1697C100.179 67.4153 100.193 66.5629 100.453 65.7315C100.979 67.089 101.91 67.1873 102.959 67.1802C107.765 67.1522 112.572 67.1802 117.378 67.1802C118.283 67.1802 119.259 66.9908 119.329 68.3589C119.329 68.4115 119.558 68.4501 119.681 68.4957V75.3783L119.329 75.4063C118.877 74.1751 119.414 72.7859 118.715 71.5476C118.662 72.5719 118.613 73.5962 118.543 74.9924C117.753 73.7155 116.788 73.726 115.78 73.733C111.589 73.7576 107.397 73.733 103.202 73.733C102.896 73.733 102.591 73.733 102.285 73.733C99.8631 73.8909 99.2241 73.3016 99.182 70.832C99.1609 69.6112 99.1785 68.3905 99.1785 67.1697Z" fill="#01C002"/>
<path d="M194.868 42.5055C194.957 42.5602 195.029 42.6389 195.075 42.7326C195.122 42.8263 195.141 42.9311 195.131 43.0352C194.941 44.5226 193.751 45.7012 193.821 47.2693C193.821 47.4306 193.804 47.5885 193.797 47.7498L193.748 47.799V47.8621L192.761 48.8338C191.947 49.0302 191.62 49.5599 191.708 50.3703L191.684 50.4018C191.22 50.3282 191.087 50.9456 190.63 50.9035C190.504 50.6404 190.199 50.3001 190.279 50.1282C191.041 48.4304 190.479 46.6554 190.63 44.926C190.664 44.502 190.86 44.1073 191.178 43.8245C192.621 44.1753 193.635 43.4737 194.59 42.5125C194.692 42.6809 194.78 42.6809 194.868 42.5055Z" fill="#02E702"/>
<path d="M226.46 44.0735C226.877 46.0546 226.892 48.0994 226.502 50.0861L226.46 44.0735Z" fill="#428A41"/>
<path d="M194.348 38.5626C194.875 38.5977 194.868 38.9765 194.871 39.3554H194.341V38.5696L194.348 38.5626Z" fill="#02F002"/>
<path d="M194.341 39.3554H194.871C194.871 39.5273 194.871 39.7062 194.871 39.8745C194.8 39.8827 194.729 39.875 194.662 39.8519C194.594 39.8289 194.533 39.7911 194.482 39.7413C194.431 39.6916 194.392 39.6311 194.368 39.5643C194.343 39.4975 194.334 39.4262 194.341 39.3554Z" fill="#04F606"/>
<path d="M182.756 75.0275C182.612 76.592 183.107 78.0969 183.177 79.6404L182.717 79.4615C182.461 79.1107 182.085 79.2194 181.748 79.2194L151.722 79.244C149.264 78.6336 148.787 77.49 150.065 75.3186C150.56 74.4802 150.82 73.477 151.715 72.9122C151.75 73.733 152.185 73.8874 152.845 73.5366C153.098 73.4033 153.26 73.1051 153.498 72.9297C153.877 72.6491 153.906 71.6914 154.552 72.0633C155.31 72.4912 154.358 72.9017 154.288 73.3507C154.253 73.5647 154.13 73.7646 154.288 73.9611C154.446 74.1575 154.702 74.2768 154.853 74.1014C155.724 73.0876 156.795 73.7506 157.771 73.726C161.088 73.6944 164.406 73.726 167.723 73.726C171.434 73.726 175.148 73.726 178.859 73.726C180.298 73.7401 181.892 73.3226 182.756 75.0275Z" fill="#03B903"/>
<path d="M159.063 61.5711L159.298 61.2624L159.544 61.6763C159.661 61.4006 159.676 61.0921 159.586 60.8064C159.653 60.2942 160.025 59.9504 160.288 59.54C160.352 59.5036 160.401 59.445 160.425 59.3751C161.583 57.7825 162.475 56.011 163.771 54.5167C163.808 54.5416 163.845 54.5685 163.879 54.5973C164.023 56.1619 164.55 56.674 166.08 56.6705C172.277 56.6705 178.473 56.6916 184.662 56.5267C185.656 56.5021 185.522 57.3511 186.105 57.4738C185.975 57.8913 185.968 58.4525 185.687 58.7016C184.634 59.6102 184.15 60.8905 183.297 61.9149C183.226 61.9112 183.156 61.9225 183.091 61.948C183.025 61.9734 182.966 62.0124 182.916 62.0625C182.867 62.1125 182.828 62.1724 182.804 62.2382C182.779 62.3041 182.769 62.3744 182.774 62.4446C182.673 62.4358 182.571 62.4551 182.481 62.5003C182.391 62.5455 182.314 62.6148 182.261 62.7006C181.422 62.2551 180.748 63.0163 179.923 63.0058C175.008 62.9357 170.055 62.9707 165.119 62.9707C164.859 62.9707 164.508 63.062 164.35 62.9287C163.535 62.2271 162.945 62.7287 162.17 63.0935C160.678 63.8021 159.179 62.9848 159.063 61.5711Z" fill="#01D901"/>
<path d="M159.063 61.5711C159.179 62.9742 160.678 63.7986 162.163 63.0935C162.931 62.7427 163.528 62.2411 164.343 62.9286C164.501 63.0619 164.852 62.9707 165.112 62.9707C170.047 62.9707 174.983 62.9356 179.916 63.0058C180.741 63.0058 181.415 62.2551 182.254 62.7006C182.756 63.1531 182.352 63.4478 182.092 63.7986C181.657 64.3844 181.085 64.9176 181.208 65.756L180.941 66.3699C180.488 67.6082 179.238 67.6222 178.354 67.6363C172.105 67.738 165.852 67.724 159.603 67.6643C158.241 67.6643 156.844 67.3942 155.945 66.1244L155.966 66.1033C156.317 66.1033 156.486 65.9244 156.454 65.5701C157.034 65.5701 157.02 65.2193 156.967 64.7984V64.7808L157.206 64.5002C157.795 64.1494 158.175 63.7109 158.052 62.9778C158.294 62.4475 158.637 61.9696 159.063 61.5711Z" fill="#02CD01"/>
<path d="M169.103 47.7499C169.907 48.1006 170.156 47.5394 170.378 46.9711C170.89 45.7012 171.638 45.375 172.835 45.9924C173.316 46.2041 173.851 46.2605 174.366 46.1538C178.54 45.6276 182.728 46.038 186.909 45.9363C187.692 45.9152 188.384 46.3432 189.068 46.7045C188.914 47.6657 189.395 48.5672 189.338 49.5108C189.289 50.3983 189.689 50.914 190.644 50.8824C190.241 51.6857 189.918 52.5312 189.18 53.1275C188.85 53.3906 188.524 53.6853 188.169 53.3169C187.815 52.9486 188.226 52.689 188.415 52.4084C188.566 52.1909 188.707 51.9769 189.008 51.9383C189.31 51.8997 189.668 51.791 189.36 51.363C189.114 51.0122 188.791 50.7737 188.391 51.1701C188.117 51.5081 187.821 51.828 187.506 52.1277C186.804 52.668 186.045 52.7416 185.751 51.7769C185.424 50.7456 184.757 50.6123 183.844 50.6193C180.78 50.6509 177.711 50.6439 174.646 50.6193C173.035 50.6193 171.441 50.244 169.816 50.3422C169.149 50.3843 168.605 50.5562 168.619 51.2367C168.647 52.5943 168.152 52.3944 167.292 51.8611C166.734 51.5104 165.786 51.6156 165.961 52.3522C166.253 53.5695 165.635 53.4888 164.908 53.5239L164.883 53.4958L164.841 53.145C165.242 51.9209 165.947 50.8187 166.892 49.9423C167.021 50.2054 167.243 50.3457 167.741 50.465C167.853 50.5036 167.759 50.4299 167.657 50.3773C167.555 50.3247 167.474 50.3773 167.548 50.486C167.614 50.5843 167.689 50.6759 167.773 50.7597C167.825 50.707 167.874 50.6544 167.741 50.465C167.509 49.9809 167.288 49.8336 166.937 49.8336C167.099 49.1917 167.469 48.6217 167.99 48.2129C168.485 48.3672 168.643 47.7113 169.103 47.7499Z" fill="#02E702"/>
<path d="M151.733 79.258L181.759 79.2335C182.11 79.2335 182.461 79.1317 182.728 79.4755L152.709 79.4965C152.358 79.4965 151.989 79.5878 151.733 79.258Z" fill="#428A41"/>
<path d="M169.103 47.7498C168.643 47.7112 168.485 48.3637 167.987 48.2304L168.099 48.0024L168.292 47.7498C168.408 47.0903 168.928 46.6659 169.258 46.1327C170.058 44.8312 170.079 44.8453 168.605 44.6137L168.317 44.0806C168.751 44.0518 169.187 44.06 169.619 44.1051C170.581 44.277 170.901 45.0803 170.258 45.7749C169.718 46.3572 169.486 47.0903 169.103 47.7498Z" fill="#04F606"/>
<path d="M154.324 68.7132L154.762 68.9517C153.674 70.2146 153.27 72.0001 151.722 72.9087C152.217 71.2705 153.27 69.9866 154.324 68.7132Z" fill="#03B903"/>
<path d="M158.052 62.9847C158.175 63.7179 157.795 64.1704 157.206 64.5072C157.233 64.2086 157.322 63.9189 157.468 63.6567C157.613 63.3946 157.812 63.1657 158.052 62.9847Z" fill="#01C002"/>
<path d="M163.763 54.5167C163.791 54.3223 163.86 54.1361 163.965 53.9699C164.069 53.8037 164.208 53.6614 164.371 53.552L164.402 54.0431C164.401 54.1854 164.345 54.3218 164.247 54.4247C164.148 54.5276 164.014 54.5893 163.872 54.5973C163.837 54.5685 163.801 54.5416 163.763 54.5167Z" fill="#01D901"/>
<path d="M156.97 64.7914C157.023 65.1983 157.037 65.5771 156.458 65.5631C156.435 65.3942 156.474 65.2227 156.569 65.0807C156.663 64.9387 156.806 64.8358 156.97 64.7914Z" fill="#01C002"/>
<path d="M166.937 49.8511C167.288 49.8511 167.509 49.9984 167.527 50.3773C167.392 50.376 167.261 50.336 167.148 50.2619C167.035 50.1879 166.946 50.083 166.892 49.9598L166.937 49.8511Z" fill="#02E001"/>
<path d="M156.454 65.5561C156.486 65.9069 156.328 66.0893 155.966 66.0893C155.97 65.7806 156.103 65.5771 156.454 65.5561Z" fill="#01C002"/>
<path d="M159.586 60.8063C159.676 61.0921 159.661 61.4005 159.544 61.6763L159.298 61.2624C159.286 61.1648 159.308 61.066 159.36 60.9828C159.413 60.8996 159.492 60.8373 159.586 60.8063Z" fill="#02CD01"/>
<path d="M164.402 54.0431L164.371 53.552C164.372 53.5377 164.375 53.5237 164.382 53.5108C164.388 53.498 164.397 53.4865 164.408 53.4771C164.418 53.4676 164.431 53.4603 164.444 53.4557C164.458 53.4511 164.472 53.4493 164.487 53.4502L164.883 53.5099L164.908 53.5379C164.912 53.6053 164.902 53.6728 164.878 53.736C164.854 53.7991 164.817 53.8565 164.769 53.9042C164.721 53.952 164.664 53.989 164.601 54.013C164.537 54.0369 164.47 54.0472 164.402 54.0431Z" fill="#02E702"/>
<path d="M160.418 59.3751C160.394 59.4449 160.345 59.5036 160.281 59.54C160.249 59.4207 160.274 59.347 160.418 59.3751Z" fill="#02CD01"/>
<path d="M157.223 64.5037L156.985 64.7843C156.979 64.7498 156.981 64.7144 156.99 64.6807C157 64.6469 157.016 64.6157 157.039 64.589C157.062 64.5623 157.09 64.5409 157.122 64.5261C157.154 64.5114 157.188 64.5038 157.223 64.5037Z" fill="#01C002"/>
<path d="M168.292 47.7498L168.099 48.0024C168.09 47.9727 168.088 47.9413 168.094 47.9109C168.1 47.8804 168.112 47.8516 168.131 47.827C168.15 47.8024 168.174 47.7825 168.202 47.7691C168.23 47.7557 168.261 47.7491 168.292 47.7498Z" fill="#02E702"/>
<path d="M164.883 53.5098L164.487 53.4502C164.606 53.3555 164.725 53.2608 164.838 53.1626L164.883 53.5098Z" fill="#01D901"/>
<path d="M5.58545 73.1998V62.7076C6.31566 62.5813 6.0664 62.006 6.11204 61.5676C6.1647 61.0554 6.01023 60.5152 6.37183 59.8873C6.37183 61.2413 7.99373 60.866 8.29915 61.9254C8.35532 62.1253 8.61511 62.0762 8.7134 61.9254C9.19436 61.1606 9.95616 61.4202 10.6197 61.4167C14.1549 61.3957 17.6971 61.55 21.2218 61.3466C22.9771 61.2448 24.8307 61.7359 26.5263 60.8449C28.8995 64.7036 32.8735 64.4861 35.6539 62.3884C36.1138 62.5077 36.4684 62.3112 36.8791 62.1113C37.5321 61.7886 38.3079 60.7853 38.8802 62.2937C39.0066 62.6199 39.6104 62.4516 39.9966 62.4516C44.3743 62.4516 48.7485 62.4726 53.1263 62.4516C53.8222 62.4402 54.5072 62.625 55.1028 62.9847C55.3029 63.1005 55.5697 63.2408 55.4819 63.4408C54.9132 64.6931 56.184 66.1138 55.0993 67.324C54.9553 67.4889 55.0115 67.8292 54.9764 68.0888H54.9062C54.6429 68.0151 54.4533 67.6468 54.1163 67.8994C54.1077 67.9156 54.1032 67.9336 54.1032 67.952C54.1032 67.9703 54.1077 67.9884 54.1163 68.0046C54.3164 68.3554 54.6324 68.173 54.9097 68.1624L55.0045 68.7448L52.9192 71.3897C52.4452 71.3161 52.3153 71.9405 51.866 71.9124C51.6132 71.8423 51.2973 71.7896 51.5641 71.4283C51.7396 71.1863 51.9959 71.0039 52.1819 70.7688C52.4523 70.418 52.533 69.976 52.2065 69.7165C51.88 69.4569 51.5746 69.7936 51.3499 70.0672C51.1884 70.2672 50.9181 70.5022 50.9286 70.7057C51.0129 72.0738 49.6402 72.151 48.9732 72.7648C48.3062 73.3787 48.1939 72.4597 48.5063 71.5511C48.4502 71.2003 48.3097 71.3862 48.2114 71.6458C48.1131 71.9054 48.2114 71.9405 48.4326 71.8984C48.6538 71.8563 49.0961 72.0106 49.0926 71.5476C49.0926 71.4248 48.9065 71.302 48.5063 71.5476C47.4321 71.9194 46.7018 71.9896 46.2279 71.1793C45.9822 70.7548 45.4556 70.846 45.0203 70.846C33.4563 70.846 21.8923 70.846 10.3283 70.8706C9.12416 70.8706 7.92351 71.2214 6.71586 71.3687C6.17171 71.4353 6.12609 71.7686 6.11204 72.193C6.098 72.6175 6.24545 73.1156 5.58545 73.1998ZM35.5627 65.0334C36.2191 64.7282 36.2016 63.8372 36.7492 63.3671C36.9037 63.2338 36.7492 62.9076 36.5105 62.8865C36.3831 62.8612 36.2516 62.8643 36.1255 62.8957C35.9994 62.9271 35.8818 62.986 35.7811 63.0681C35.6805 63.1503 35.5992 63.2536 35.5433 63.3708C35.4873 63.488 35.4579 63.6161 35.4573 63.746C35.4398 63.8512 35.2046 63.9529 35.0536 64.0021C34.8044 64.0862 34.4954 64.1248 34.6604 64.4862C34.7325 64.6618 34.859 64.8097 35.0214 64.9082C35.1838 65.0067 35.3735 65.0506 35.5627 65.0334ZM53.3299 68.4115C53.2597 68.3799 53.1719 68.3098 53.1193 68.3273C53.0666 68.3449 53.0526 68.4606 53.021 68.5308C53.0912 68.5623 53.1789 68.636 53.2316 68.615C53.2843 68.5939 53.2983 68.4817 53.3299 68.4115Z" fill="#02E001"/>
<path d="M59.7859 39.8921L59.807 38.8397C60.0457 38.9064 59.8807 39.3554 60.309 39.3063C60.0843 38.7941 60.66 38.075 59.7999 37.7698C60.2036 34.0058 63.0613 31.7116 66.2419 30.9644C69.4766 30.2021 72.8641 30.4058 75.9839 31.5503C78.7924 32.557 80.2914 34.7811 80.8145 37.6786C80.8145 40.4849 80.8145 43.3018 80.8145 46.1292C80.8145 46.957 80.8145 47.7884 80.7653 48.6093C80.6706 49.8932 81.0462 51.2051 80.5301 52.468C80.5301 51.0648 80.5301 49.6617 80.5301 48.2585C80.5301 46.3361 80.5301 44.4126 80.5301 42.488C80.5898 41.3093 80.3687 40.1447 80.3125 38.98C80.2668 37.9768 79.9614 37.7558 78.9995 37.7382C76.9914 37.7032 75.0957 38.4644 73.0315 38.3346C70.2405 38.1557 67.432 38.2855 64.6305 38.289C63.9284 38.289 63.0578 38.075 63.1104 39.2993C63.1104 39.5588 62.8401 40.0008 62.4926 39.6501C61.2323 38.4047 61.1059 39.5729 60.8004 40.4007C60.7337 40.8673 60.9479 41.39 60.5863 41.853C59.8315 41.3514 60.8075 40.2218 59.7859 39.8921Z" fill="#04F606"/>
<path d="M80.8181 46.1397C80.8181 43.3334 80.8181 40.5165 80.8181 37.6891C81.3482 38.5696 81.0182 39.5308 81.092 40.4534C81.0685 42.3757 81.0428 44.298 81.0147 46.2204C80.9539 46.1832 80.8875 46.156 80.8181 46.1397Z" fill="#428A41"/>
<path d="M59.8 37.7803C60.6566 38.0855 60.0844 38.8046 60.3091 39.3168C59.8808 39.3659 60.0458 38.9169 59.8071 38.8502L59.6807 38.2434C59.7228 38.089 59.7544 37.9347 59.8 37.7803Z" fill="#02E702"/>
<path d="M54.9095 68.1554C54.6322 68.1554 54.3162 68.3589 54.1161 67.9976C54.1075 67.9814 54.103 67.9633 54.103 67.945C54.103 67.9266 54.1075 67.9085 54.1161 67.8923C54.4672 67.6398 54.6427 68.0081 54.906 68.0818L54.9095 68.1554Z" fill="#01D901"/>
<path d="M206.147 35.5949C207.619 35.2076 209.167 35.2173 210.634 35.6229L206.147 35.5949Z" fill="#428A41"/>
<path d="M210.325 36.293C209.925 36.507 209.517 36.5105 208.717 36.293H210.325Z" fill="#22E425"/>
<path d="M206.653 36.3245C206.832 36.2363 207.029 36.1928 207.228 36.1977C207.428 36.2026 207.623 36.2557 207.797 36.3526C207.618 36.4399 207.421 36.483 207.222 36.4781C207.022 36.4732 206.827 36.4205 206.653 36.3245Z" fill="#22E425"/>
<path d="M95.4398 67.1662L95.4609 71.1056C94.9027 71.2038 94.9729 71.6353 94.9729 72.0247C94.929 72.8098 94.929 73.5968 94.9729 74.382C95.0817 75.4519 94.5516 75.5992 93.6494 75.5887C92.8314 75.5887 92.3224 74.6416 91.6167 74.8275C89.9632 75.266 88.4326 74.5539 86.8528 74.5399C79.319 74.4837 71.7887 74.5153 64.255 74.5188C63.788 74.5188 63.3984 74.4872 63.0648 75.052C62.5874 75.8694 62.0327 75.6905 61.5904 74.7889C61.2007 74.0031 61.4745 73.0981 61.0357 72.0773C60.4986 73.2805 61.1059 74.4592 60.2563 75.3747V67.6924C60.9585 67.7871 61.0217 66.412 61.45 66.833C62.4013 67.7696 63.3597 67.1311 64.283 67.1417C69.219 67.1978 74.1619 67.1662 79.1014 67.1732C79.8948 67.1732 80.618 67.1241 80.7514 66.1208L81.1024 66.0928C81.1296 66.0767 81.1616 66.071 81.1926 66.0768C81.2236 66.0826 81.2515 66.0995 81.2709 66.1243C81.45 66.9206 82.0994 66.6295 82.5593 66.633C86.1519 66.654 89.7444 66.654 93.3369 66.633C94.1198 66.6295 94.8219 66.6961 95.4398 67.1662Z" fill="#01C002"/>
<path d="M81.1304 66.0928L80.7793 66.1208H80.5371V65.5946C80.8285 63.7565 80.4388 61.9218 80.5371 60.0872V54.5728C80.5371 53.8712 80.5371 53.1696 80.5371 52.468C81.0531 51.2087 80.6775 49.8967 80.7723 48.6093C80.8355 47.7884 80.8074 46.9571 80.8214 46.1292C80.8957 46.144 80.9669 46.1713 81.0321 46.2099L81.0847 55.1095C81.0918 58.7764 81.107 62.4375 81.1304 66.0928Z" fill="#18E019"/>
<path d="M95.4399 67.1662C94.822 66.6962 94.1199 66.6295 93.3651 66.633C89.7725 66.6564 86.18 66.6564 82.5875 66.633C82.1276 66.633 81.4781 66.9207 81.2991 66.1244L95.4644 66.1805C95.4574 66.5102 95.4469 66.8365 95.4399 67.1662Z" fill="#03B903"/>
<path d="M60.2703 67.6924V75.3782C61.1198 74.4627 60.5125 73.2735 61.0496 72.0808C61.4885 73.1016 61.2147 74.0067 61.6043 74.7924C62.0467 75.694 62.6013 75.8729 63.0788 75.0555C63.4123 74.4908 63.802 74.5223 64.2689 74.5223C71.8027 74.5223 79.333 74.4872 86.8668 74.5434C88.4465 74.5434 89.9772 75.2695 91.6307 74.831C92.3328 74.6451 92.8454 75.5852 93.6633 75.5922C94.5656 75.5922 95.0956 75.4554 94.9868 74.3855C94.9429 73.6003 94.9429 72.8133 94.9868 72.0282C94.9868 71.6388 94.9166 71.2073 95.4748 71.1091C95.4748 73.4664 95.4748 75.8202 95.5134 78.1776C95.5134 78.9598 95.2852 79.2299 94.4602 79.2299C83.2262 79.2136 71.9922 79.2136 60.7583 79.2299C60.0386 79.2299 59.7367 79.009 59.7507 78.2583C59.7963 75.9465 59.7929 73.6348 59.8069 71.3231C60.1966 70.8285 59.9719 70.2497 60.0105 69.7095C60.0632 68.9553 60.0702 68.1975 60.0947 67.4433C60.1539 67.4725 60.2083 67.5104 60.2562 67.5556C60.2668 67.5942 60.2633 67.6608 60.2703 67.6924Z" fill="#03B903"/>
<path d="M60.2704 67.6924C60.2704 67.6503 60.2704 67.5942 60.2423 67.5696C60.1944 67.5244 60.14 67.4866 60.0808 67.4574C60.0563 68.2116 60.0493 68.9693 59.9966 69.7235C59.958 70.2637 60.1826 70.8425 59.793 71.3371V49.3354H60.2739C60.2739 49.6862 60.2739 50.037 60.2739 50.3878V56.9476C60.2739 58.2596 60.2739 59.5716 60.2739 60.887C59.9229 61.5886 59.7719 62.2902 60.2739 62.9918C61.1516 62.4761 61.0041 61.6307 60.8953 60.8555C60.7865 60.0802 61.0217 59.8312 61.8151 59.9504C64.0057 60.2732 66.1542 60.7888 68.4186 60.652C71.2516 60.5012 74.1023 60.5994 76.9424 60.6239C78.1711 60.6239 79.3787 60.6239 80.5162 60.0907C80.4144 61.9254 80.8041 63.76 80.5162 65.5982C80.2529 65.7806 80.2494 65.949 80.5162 66.1244H80.7584C80.625 67.1276 79.9018 67.1767 79.1084 67.1767C74.169 67.1767 69.226 67.2013 64.2901 67.1452C63.3668 67.1452 62.4084 67.7731 61.457 66.8365C61.0357 66.412 60.976 67.7871 60.2704 67.6924ZM60.1511 65.2895C60.0552 65.4139 60.0013 65.5653 59.9968 65.7222C59.9924 65.8791 60.0378 66.0334 60.1265 66.1629C60.2198 66.0375 60.2723 65.8864 60.2767 65.7301C60.2811 65.5738 60.2372 65.42 60.1511 65.2895Z" fill="#02CD01"/>
<path d="M60.2668 50.3773C60.2668 50.0265 60.2668 49.6757 60.2668 49.3249C60.2668 47.9217 60.2668 46.5186 60.2668 45.1154C60.2668 44.7155 60.4388 44.1963 59.7964 44.063C59.7964 42.6599 59.7964 41.2567 59.7964 39.8535C60.8285 40.1833 59.842 41.2988 60.5933 41.8215C60.9444 41.3584 60.7407 40.8357 60.8074 40.3692C61.8606 40.8919 61.1199 41.8425 61.3235 42.5686C61.4323 42.9475 61.0672 43.5509 62.0537 43.1615C63.7107 42.502 65.5292 42.73 67.2916 42.73C71.0128 42.73 74.7341 42.73 78.4554 42.73C79.153 42.743 79.8488 42.6519 80.5196 42.4599C80.5196 44.3822 80.5196 46.3058 80.5196 48.2304C76.5842 48.2304 72.6523 48.1813 68.7204 48.2515C66.7404 48.2901 64.7113 47.8411 62.7804 48.718C62.5896 48.7751 62.3882 48.787 62.192 48.7529C61.9959 48.7188 61.8103 48.6396 61.65 48.5216C61.0321 48.1708 60.8039 48.3672 60.7864 49.0583C60.7688 49.5634 61.0708 50.2124 60.2668 50.3773Z" fill="#02E702"/>
<path d="M59.793 44.0876C60.4354 44.2209 60.2564 44.7401 60.2634 45.14C60.2634 46.5431 60.2634 47.9463 60.2634 49.3495H59.7825L59.793 44.0876Z" fill="#02E001"/>
<path d="M164.403 54.0431C164.47 54.0472 164.538 54.0369 164.601 54.013C164.664 53.989 164.721 53.952 164.769 53.9042C164.817 53.8565 164.854 53.7991 164.878 53.736C164.902 53.6728 164.912 53.6053 164.908 53.5379C165.649 53.5029 166.267 53.5836 165.961 52.3663C165.786 51.6296 166.734 51.5279 167.292 51.8752C168.152 52.4084 168.647 52.6083 168.619 51.2508C168.619 50.5702 169.149 50.3983 169.816 50.3562C171.441 50.258 173.035 50.6229 174.647 50.6334C177.711 50.6334 180.78 50.6579 183.844 50.6334C184.757 50.6334 185.424 50.7597 185.751 51.791C186.06 52.7697 186.804 52.696 187.506 52.1418C187.821 51.8421 188.117 51.5222 188.391 51.1841C188.791 50.7877 189.114 51.0193 189.36 51.3771C189.658 51.805 189.328 51.9032 189.008 51.9523C188.689 52.0015 188.566 52.2049 188.415 52.4224C188.226 52.7031 187.85 52.9977 188.169 53.331C188.489 53.6642 188.851 53.4046 189.181 53.1415C189.918 52.5452 190.234 51.6998 190.644 50.8965C191.097 50.9386 191.231 50.3212 191.698 50.3949L191.677 50.8754C190.45 52.3585 189.356 53.9467 188.408 55.6216L188.261 55.8391C188.159 55.8856 188.075 55.9636 188.021 56.0616C187.968 56.1595 187.947 56.2722 187.962 56.3829V56.3618C186.76 57.7377 185.721 59.2479 184.866 60.8625C183.63 62.185 182.812 63.8056 181.738 65.2404C181.584 65.4508 181.475 65.6789 181.204 65.749C181.081 64.9106 181.654 64.3774 182.089 63.7916C182.349 63.4408 182.753 63.1462 182.251 62.6936C182.304 62.6078 182.38 62.5384 182.471 62.4932C182.561 62.448 182.662 62.4288 182.763 62.4375C183.114 62.4375 183.293 62.2656 183.286 61.9078C184.139 60.8835 184.641 59.6031 185.677 58.6946C185.958 58.4455 185.965 57.8843 186.095 57.4668C185.512 57.344 185.645 56.4951 184.652 56.5197C178.463 56.6845 172.266 56.646 166.07 56.6635C164.539 56.6635 164.013 56.1548 163.869 54.5903C164.011 54.5833 164.144 54.5229 164.243 54.4214C164.342 54.3199 164.399 54.1848 164.403 54.0431Z" fill="#02E001"/>
<path d="M120.162 50.3773C119.526 50.5141 119.695 51.0263 119.688 51.4297C119.67 52.482 119.688 53.5344 119.688 54.5868C118.877 54.236 118.062 54.5868 117.251 54.5868C111.23 54.5552 105.206 54.5868 99.1855 54.5868V48.5532C101.517 48.0621 103.883 48.3287 106.231 48.3041C110.121 48.2585 114.011 48.3217 117.901 48.2655C118.659 48.2655 119.41 48.9671 120.162 48.2936C120.158 48.9776 120.162 49.6792 120.162 50.3773Z" fill="#02E001"/>
<path d="M99.1786 54.5728C105.199 54.5728 111.224 54.5728 117.244 54.5728C118.055 54.5728 118.87 54.2009 119.681 54.5728V57.979C119.681 59.3821 119.14 60.0557 117.792 60.0837C112.628 60.1188 107.464 60.0837 102.3 60.1293C101.597 60.1293 100.965 59.119 100.295 59.9013C99.835 60.4415 100.018 61.2378 99.9088 61.9219C99.8491 62.3042 99.6771 62.6936 99.175 62.7182C99.175 59.9983 99.1762 57.2832 99.1786 54.5728Z" fill="#01D901"/>
<path d="M192.779 48.8338L192.631 49.4652C192.203 49.6406 192.221 50.2545 191.736 50.3703C191.638 49.5599 191.964 49.0302 192.779 48.8338Z" fill="#02E001"/>
<path d="M25.5503 58.7647C24.634 58.0632 25.0026 57.2283 25.3256 56.4039C25.7012 57.1616 25.6064 57.9649 25.5503 58.7647Z" fill="#18E019"/>
<path d="M26.1224 60.0907C25.796 59.9153 25.8346 59.6066 25.8311 59.3085C26.1681 59.4804 26.1224 59.7926 26.1224 60.0907Z" fill="#02E001"/>
<path d="M6.39294 102.06C6.04187 101.568 6.04187 101.235 6.39294 100.825C6.7124 101.204 6.7124 101.54 6.39294 102.06Z" fill="#03B903"/>
<path d="M183.827 68.7413C183.827 68.5659 183.265 68.3905 183.767 68.2326C187.039 67.2469 189.384 70.4777 189.584 72.7403C188.861 71.8949 188.457 70.846 187.727 69.9831C186.642 68.7132 185.413 68.2712 183.827 68.7413Z" fill="#22E425"/>
<path d="M189.647 72.9402C190.651 73.5682 190.729 74.5504 190.669 75.5852C190.129 74.7939 189.78 73.8887 189.647 72.9402Z" fill="#22E425"/>
<path d="M196.479 70.6741C196.479 70.0673 196.216 69.3832 196.988 69.0114C197.021 69.3086 196.993 69.6094 196.906 69.8954C196.818 70.1814 196.673 70.4464 196.479 70.6741Z" fill="#22E425"/>
<path d="M182.517 71.3722C182.942 71.7441 182.714 72.2352 182.76 72.6772C182.356 72.3018 182.57 71.8142 182.517 71.3722Z" fill="#18E019"/>
<path d="M190.658 50.8965C189.718 50.9175 189.303 50.4124 189.352 49.5249C189.409 48.5672 188.928 47.6657 189.082 46.7185C189.861 45.8942 189.57 44.8663 189.605 43.9122C189.633 43.0984 189.605 42.2845 189.605 41.4566H190.104C190.21 41.481 190.321 41.4685 190.419 41.4214C190.518 41.3742 190.597 41.2951 190.644 41.1971C190.964 40.969 191.231 40.4955 191.698 40.948V41.4777C191.034 42.1547 191.167 43.0107 191.171 43.8385C190.853 44.1214 190.657 44.516 190.623 44.94C190.486 46.6694 191.048 48.4479 190.272 50.1423C190.227 50.2931 190.532 50.6334 190.658 50.8965Z" fill="#03FB05"/>
<path d="M161.211 41.1935C161.584 41.2381 161.96 41.1404 162.264 40.9199C162.208 41.3093 162.451 41.8635 161.791 41.9407C161.264 42.0004 161.008 41.4742 160.586 41.2847C160.478 41.2356 160.586 41.0216 160.723 41.0357C160.892 41.0666 161.056 41.1197 161.211 41.1935Z" fill="#04F606"/>
<path d="M153.818 38.8362C153.818 39.3589 153.818 39.8886 153.818 40.4007C152.744 39.8816 153.193 39.3589 153.818 38.8362Z" fill="#04F606"/>
<path d="M172.245 40.3867C172.239 40.3164 172.249 40.2457 172.273 40.1795C172.298 40.1133 172.336 40.0533 172.387 40.0037C172.437 39.9542 172.497 39.9163 172.564 39.8927C172.631 39.8692 172.701 39.8606 172.772 39.8676C172.772 40.0745 172.793 40.2815 172.772 40.4885C172.751 40.6954 172.81 41.0848 172.466 41.0322C172.2 41.0006 172.28 40.6253 172.245 40.3867Z" fill="#04F606"/>
<path d="M186.881 41.6531C186.853 41.7232 186.835 41.8355 186.783 41.8565C186.73 41.8776 186.646 41.8039 186.575 41.7758C186.604 41.7022 186.621 41.5934 186.67 41.5724C186.719 41.5513 186.811 41.6215 186.881 41.6531Z" fill="#04F606"/>
<path d="M188.559 41.4777H189.079C189.058 41.6495 189.044 41.8565 188.822 41.8565C188.601 41.8565 188.594 41.6495 188.559 41.4777Z" fill="#03FB05"/>
<path d="M191.715 41.4566V40.9269L192.768 41.176C192.758 42.5651 192.122 41.5794 191.715 41.4566Z" fill="#02E702"/>
<path d="M190.651 41.176C190.604 41.2741 190.525 41.3532 190.427 41.4003C190.328 41.4475 190.217 41.4599 190.111 41.4356L190.651 41.176Z" fill="#18E019"/>
<path d="M182.914 38.5626C182.394 38.5626 181.882 38.538 182.04 37.9101C182.198 37.2822 182.187 36.3105 182.868 36.3315C183.549 36.3526 183.571 37.3839 183.732 38.0048C183.911 38.7029 183.244 38.5065 182.914 38.5626Z" fill="#18E019"/>
<path d="M194.341 38.5696V39.3554C194.004 39.0923 194.008 38.8327 194.341 38.5696Z" fill="#04F606"/>
<path d="M194.868 42.5055C194.78 42.6809 194.692 42.6809 194.601 42.5055C194.646 42.3932 194.692 42.281 194.734 42.1547C194.78 42.281 194.826 42.4038 194.868 42.5055Z" fill="#04F606"/>
<path d="M183.29 61.9148C183.29 62.2656 183.114 62.4375 182.766 62.4445C182.762 62.3744 182.772 62.3041 182.797 62.2382C182.821 62.1724 182.86 62.1125 182.909 62.0624C182.958 62.0124 183.018 61.9734 183.083 61.948C183.149 61.9225 183.219 61.9112 183.29 61.9148Z" fill="#02CD01"/>
<path d="M167.959 50.5913L167.773 50.7772C167.689 50.6935 167.614 50.6018 167.548 50.5036C167.474 50.3773 167.523 50.3282 167.657 50.3948C167.761 50.4549 167.862 50.5205 167.959 50.5913Z" fill="#02E001"/>
<path d="M35.5626 65.0334C35.3752 65.0483 35.1878 65.0033 35.0276 64.9049C34.8673 64.8066 34.7424 64.66 34.6709 64.4862C34.5059 64.1354 34.8149 64.0863 35.0641 64.0021C35.2151 63.953 35.4503 63.8512 35.4678 63.746C35.4685 63.6161 35.4978 63.488 35.5538 63.3708C35.6097 63.2536 35.691 63.1503 35.7916 63.0681C35.8923 62.986 36.0099 62.9271 36.136 62.8957C36.2621 62.8643 36.3936 62.8612 36.521 62.8865C36.7703 62.9076 36.9142 63.2373 36.7598 63.3671C36.2016 63.8372 36.2332 64.7282 35.5626 65.0334Z" fill="#02E702"/>
<path d="M48.8327 71.1968C48.9064 71.2845 49.0924 71.4073 49.0924 71.5301C49.0924 72.0036 48.6957 71.8388 48.4324 71.8809C48.1691 71.923 48.127 71.8598 48.2113 71.6283C48.2452 71.4935 48.3268 71.3755 48.4411 71.2962C48.5553 71.2169 48.6944 71.1816 48.8327 71.1968Z" fill="#01D901"/>
<path d="M53.3299 68.4115C53.2983 68.4817 53.2843 68.5939 53.2316 68.615C53.179 68.636 53.0912 68.5623 53.021 68.5308C53.0526 68.4606 53.0701 68.3484 53.1193 68.3273C53.1684 68.3063 53.2597 68.3799 53.3299 68.4115Z" fill="#01D901"/>
<path d="M60.2668 50.3773C61.0708 50.2124 60.7689 49.5635 60.7794 49.1039C60.7969 48.4023 61.0251 48.2164 61.643 48.5672C61.8033 48.6852 61.9889 48.7644 62.185 48.7985C62.3812 48.8326 62.5826 48.8207 62.7734 48.7637C64.7043 47.8867 66.7334 48.3357 68.7134 48.2971C72.6453 48.2269 76.5772 48.276 80.5126 48.276C80.5126 49.6792 80.5126 51.0824 80.5126 52.4856C80.5126 53.1871 80.5126 53.8887 80.5126 54.5903H65.0659C64.0653 54.5903 63.0613 54.6745 62.0608 54.6394C61.0602 54.6043 60.6003 55.0183 60.7969 56.0672C60.8671 56.4495 60.8426 56.881 60.2844 56.9511L60.2668 50.3773Z" fill="#02E001"/>
<path d="M80.509 42.5055C79.8382 42.6975 79.1425 42.7886 78.4448 42.7756C74.7235 42.7756 71.0023 42.7756 67.281 42.7756C65.5257 42.7756 63.7002 42.5476 62.0432 43.2071C61.0567 43.5965 61.4218 42.9931 61.3129 42.6143C61.1093 41.8881 61.8501 40.9375 60.7969 40.4148C61.1023 39.5869 61.2287 38.4188 62.489 39.6641C62.8401 40.0149 63.1174 39.5834 63.1069 39.3133C63.0542 38.089 63.9073 38.3065 64.627 38.303C67.4355 38.303 70.244 38.1697 73.0279 38.3486C75.0746 38.4784 76.9703 37.7172 78.996 37.7523C79.9403 37.7523 80.2633 37.9908 80.3089 38.9941C80.3475 40.1622 80.5687 41.3268 80.509 42.5055Z" fill="#02F002"/>
<path d="M60.2704 56.9371C60.8286 56.8669 60.8532 56.4354 60.7829 56.0531C60.5863 55.0007 60.9936 54.5903 62.0468 54.6254C63.1 54.6605 64.0513 54.5798 65.0519 54.5763H80.4986V60.0837C79.3612 60.6239 78.1535 60.6309 76.9248 60.6169C74.0847 60.5923 71.2341 60.4941 68.401 60.645C66.1366 60.7677 63.9881 60.2521 61.7975 59.9434C61.0041 59.8241 60.7689 60.0521 60.8777 60.8484C60.9866 61.6447 61.134 62.4691 60.2563 62.9847C60.2563 62.2832 60.2563 61.5816 60.2563 60.88C60.2669 59.561 60.2704 58.2491 60.2704 56.9371Z" fill="#01D901"/>
<path d="M80.523 66.1173C80.2422 65.9489 80.2457 65.7665 80.523 65.5911C80.516 65.7665 80.5195 65.9419 80.523 66.1173Z" fill="#01C002"/>
<path d="M60.2669 60.8765C60.2669 61.5781 60.2669 62.2797 60.2669 62.9812C59.7544 62.2726 59.9264 61.5746 60.2669 60.8765Z" fill="#03B903"/>
<path d="M60.1511 65.2895C60.2373 65.42 60.2811 65.5738 60.2767 65.7301C60.2723 65.8863 60.2199 66.0375 60.1265 66.1629C60.0378 66.0334 59.9925 65.8791 59.9969 65.7222C60.0013 65.5653 60.0553 65.4138 60.1511 65.2895Z" fill="#03B903"/>
</g>
<defs>
<clipPath id="clip0_38_4">
<rect width="233" height="116" fill="white"/>
</clipPath>
</defs>
</svg>
