<svg width="18" height="22" viewBox="0 0 18 22" fill="none" xmlns="http://www.w3.org/2000/svg">
<path fill-rule="evenodd" clip-rule="evenodd" d="M8.87379 0.340942C9.9629 0.340942 10.8457 1.22668 10.8457 2.3193H14.7896C16.4233 2.3193 17.7476 3.64791 17.7476 5.28683V18.1461C17.7476 19.7851 16.4233 21.1137 14.7896 21.1137H2.95793C1.32431 21.1137 0 19.7851 0 18.1461V5.28683C0 3.64791 1.32431 2.3193 2.95793 2.3193H6.90183C6.90183 1.22668 7.78468 0.340942 8.87379 0.340942ZM9.36677 2.3193C9.36677 3.13876 10.029 3.80306 10.8457 3.80306H11.3387V4.79224H6.40885V3.80306H6.90183C7.71862 3.80306 8.3808 3.13876 8.3808 2.3193C8.3808 2.04615 8.60156 1.82471 8.87379 1.82471C9.14601 1.82471 9.36677 2.04615 9.36677 2.3193ZM12.8177 3.80306V5.28683C12.8177 5.83313 12.3763 6.27601 11.8317 6.27601H5.91586C5.37132 6.27601 4.92988 5.83313 4.92988 5.28683V3.80306H2.95793C2.14112 3.80306 1.47896 4.46737 1.47896 5.28683V18.1461C1.47896 18.9656 2.14112 19.6299 2.95793 19.6299H14.7896C15.6064 19.6299 16.2686 18.9656 16.2686 18.1461V5.28683C16.2686 4.46737 15.6064 3.80306 14.7896 3.80306H12.8177Z" fill="#808080"/>
<path fill-rule="evenodd" clip-rule="evenodd" d="M4.23511 10.2231C4.23511 9.77757 4.56302 9.41638 4.96751 9.41638H12.7798C13.1843 9.41638 13.5122 9.77757 13.5122 10.2231C13.5122 10.6686 13.1843 11.0298 12.7798 11.0298H4.96751C4.56302 11.0298 4.23511 10.6686 4.23511 10.2231Z" fill="#808080"/>
<path fill-rule="evenodd" clip-rule="evenodd" d="M4.23511 14.1558C4.23511 13.766 4.56756 13.45 4.97765 13.45H8.93785C9.34793 13.45 9.68039 13.766 9.68039 14.1558C9.68039 14.5456 9.34793 14.8617 8.93785 14.8617H4.97765C4.56756 14.8617 4.23511 14.5456 4.23511 14.1558Z" fill="#808080"/>
</svg>
