<svg width="34" height="34" viewBox="0 0 34 34" fill="none" xmlns="http://www.w3.org/2000/svg">
<path d="M16.9687 16.378C19.2188 16.378 21.1668 15.571 22.759 13.9788C24.3507 12.3868 25.158 10.439 25.158 8.18872C25.158 5.93921 24.351 3.99112 22.7588 2.39867C21.1666 0.806992 19.2185 0 16.9687 0C14.7184 0 12.7706 0.806992 11.1787 2.39893C9.58673 3.99086 8.77948 5.93895 8.77948 8.18872C8.77948 10.439 9.58673 12.3871 11.1787 13.979C12.7711 15.5707 14.7192 16.378 16.9687 16.378ZM12.5877 3.80772C13.8092 2.58621 15.2422 1.99245 16.9687 1.99245C18.695 1.99245 20.1282 2.58621 21.35 3.80772C22.5715 5.0295 23.1655 6.46268 23.1655 8.18872C23.1655 9.91528 22.5715 11.3482 21.35 12.57C20.1282 13.7917 18.695 14.3855 16.9687 14.3855C15.2427 14.3855 13.8098 13.7915 12.5877 12.57C11.366 11.3485 10.7719 9.91528 10.7719 8.18872C10.7719 6.46268 11.366 5.0295 12.5877 3.80772Z" fill="black"/>
<path d="M31.2977 26.1443C31.2518 25.4818 31.1589 24.7591 31.0222 23.996C30.8842 23.2271 30.7065 22.5003 30.4938 21.836C30.2738 21.1493 29.9753 20.4713 29.6056 19.8215C29.2225 19.147 28.7722 18.5598 28.2669 18.0765C27.7385 17.5709 27.0915 17.1644 26.3434 16.868C25.5979 16.573 24.7717 16.4236 23.8879 16.4236C23.5409 16.4236 23.2052 16.566 22.557 16.9881C22.158 17.2482 21.6913 17.5491 21.1705 17.8819C20.7251 18.1657 20.1217 18.4316 19.3765 18.6723C18.6494 18.9076 17.9111 19.0269 17.1822 19.0269C16.4538 19.0269 15.7156 18.9076 14.9879 18.6723C14.2435 18.4319 13.6398 18.166 13.1952 17.8822C12.6793 17.5525 12.2124 17.2516 11.8074 16.9878C11.1597 16.5658 10.8241 16.4233 10.477 16.4233C9.59296 16.4233 8.76703 16.573 8.02177 16.8682C7.27419 17.1642 6.62698 17.5707 6.09807 18.0768C5.59276 18.5603 5.14244 19.1473 4.75957 19.8215C4.39044 20.4713 4.09161 21.1491 3.87164 21.8362C3.65919 22.5005 3.48151 23.2271 3.34351 23.996C3.20654 24.7581 3.11394 25.481 3.06802 26.1451C3.02289 26.7944 3.00006 27.4701 3.00006 28.1529C3.00006 29.9277 3.56425 31.3645 4.67682 32.4241C5.77563 33.4698 7.22931 34 8.99763 34H25.3689C27.1367 34 28.5903 33.4698 29.6894 32.4241C30.8022 31.3653 31.3664 29.9279 31.3664 28.1526C31.3662 27.4675 31.3431 26.7918 31.2977 26.1443ZM28.3156 30.9806C27.5896 31.6716 26.6256 32.0075 25.3686 32.0075H8.99763C7.74033 32.0075 6.7764 31.6716 6.0506 30.9808C5.33855 30.303 4.99251 29.3777 4.99251 28.1529C4.99251 27.5158 5.01352 26.8867 5.05554 26.2829C5.09653 25.6904 5.18031 25.0396 5.30457 24.348C5.42726 23.665 5.58342 23.024 5.76915 22.4437C5.94736 21.8873 6.19041 21.3364 6.49184 20.8056C6.77951 20.2998 7.1105 19.8658 7.47574 19.5162C7.81737 19.1891 8.24797 18.9214 8.75536 18.7206C9.22461 18.5349 9.75197 18.4332 10.3245 18.4179C10.3942 18.455 10.5185 18.5258 10.7198 18.657C11.1294 18.924 11.6015 19.2285 12.1234 19.5618C12.7117 19.9369 13.4697 20.2757 14.3752 20.568C15.301 20.8674 16.2453 21.0194 17.1825 21.0194C18.1197 21.0194 19.0641 20.8674 19.9894 20.5683C20.8958 20.2754 21.6535 19.9369 22.2426 19.5613C22.7767 19.2199 23.2355 18.9242 23.6451 18.657C23.8464 18.526 23.9707 18.455 24.0405 18.4179C24.6132 18.4332 25.1406 18.5349 25.6101 18.7206C26.1172 18.9214 26.5478 19.1893 26.8895 19.5162C27.2547 19.8656 27.5857 20.2995 27.8734 20.8059C28.175 21.3364 28.4184 21.8876 28.5963 22.4435C28.7823 23.0245 28.9387 23.6653 29.0611 24.3477C29.1851 25.0406 29.2692 25.6917 29.3102 26.2831V26.2836C29.3524 26.8852 29.3737 27.514 29.374 28.1529C29.3737 29.378 29.0277 30.303 28.3156 30.9806Z" fill="black"/>
</svg>
