<svg width="34" height="34" viewBox="0 0 34 34" fill="none" xmlns="http://www.w3.org/2000/svg">
<path d="M25.5 31.875H8.49998C7.56102 31.8739 6.66083 31.5004 5.99689 30.8364C5.33294 30.1725 4.95944 29.2723 4.95831 28.3333V7.79167C4.95944 6.8527 5.33294 5.95252 5.99689 5.28857C6.66083 4.62462 7.56102 4.25112 8.49998 4.25H10.4479C10.6358 4.25 10.8159 4.32463 10.9488 4.45747C11.0816 4.5903 11.1562 4.77047 11.1562 4.95833C11.1562 5.14619 11.0816 5.32636 10.9488 5.4592C10.8159 5.59204 10.6358 5.66667 10.4479 5.66667H8.49998C7.93639 5.66667 7.39589 5.89055 6.99738 6.28906C6.59886 6.68758 6.37498 7.22808 6.37498 7.79167V28.3333C6.37498 28.8969 6.59886 29.4374 6.99738 29.8359C7.39589 30.2344 7.93639 30.4583 8.49998 30.4583H25.5C26.0636 30.4583 26.6041 30.2344 27.0026 29.8359C27.4011 29.4374 27.625 28.8969 27.625 28.3333V7.79167C27.625 7.22808 27.4011 6.68758 27.0026 6.28906C26.6041 5.89055 26.0636 5.66667 25.5 5.66667H23.5521C23.3642 5.66667 23.184 5.59204 23.0512 5.4592C22.9184 5.32636 22.8437 5.14619 22.8437 4.95833C22.8437 4.77047 22.9184 4.5903 23.0512 4.45747C23.184 4.32463 23.3642 4.25 23.5521 4.25H25.5C26.4389 4.25112 27.3391 4.62462 28.0031 5.28857C28.667 5.95252 29.0405 6.8527 29.0416 7.79167V28.3333C29.0405 29.2723 28.667 30.1725 28.0031 30.8364C27.3391 31.5004 26.4389 31.8739 25.5 31.875Z" fill="black" fill-opacity="0.3"/>
<path d="M21.5602 9.20833H12.4397C11.9658 9.20844 11.5054 9.05011 11.1318 8.7585C10.7582 8.4669 10.4928 8.05877 10.3777 7.599L9.66941 4.76567C9.59103 4.45233 9.58511 4.12524 9.6521 3.80927C9.71909 3.4933 9.85723 3.19675 10.056 2.94218C10.2548 2.6876 10.509 2.48168 10.7993 2.34009C11.0896 2.19849 11.4084 2.12493 11.7314 2.125H22.2685C22.5915 2.12493 22.9103 2.19849 23.2006 2.34009C23.4909 2.48168 23.7451 2.6876 23.9439 2.94218C24.1427 3.19675 24.2808 3.4933 24.3478 3.80927C24.4148 4.12524 24.4089 4.45233 24.3305 4.76567L23.6222 7.599C23.5072 8.05877 23.2417 8.4669 22.8681 8.7585C22.4945 9.05011 22.0341 9.20844 21.5602 9.20833ZM11.7314 3.54167C11.6237 3.54159 11.5175 3.56605 11.4207 3.61319C11.3239 3.66033 11.2391 3.72892 11.1728 3.81373C11.1065 3.89854 11.0604 3.99735 11.038 4.10265C11.0156 4.20794 11.0175 4.31696 11.0436 4.42142L11.7519 7.25475C11.7902 7.40817 11.8787 7.54438 12.0033 7.64168C12.128 7.73898 12.2816 7.79178 12.4397 7.79167H21.5602C21.7183 7.79178 21.8719 7.73898 21.9966 7.64168C22.1212 7.54438 22.2097 7.40817 22.248 7.25475L22.9563 4.42142C22.9824 4.31696 22.9843 4.20794 22.9619 4.10265C22.9395 3.99735 22.8934 3.89854 22.8271 3.81373C22.7608 3.72892 22.676 3.66033 22.5792 3.61319C22.4824 3.56605 22.3762 3.54159 22.2685 3.54167H11.7314Z" fill="black" fill-opacity="0.3"/>
<path d="M21.25 26.9167H12.75C12.5621 26.9167 12.3819 26.842 12.2491 26.7092C12.1163 26.5764 12.0416 26.3962 12.0416 26.2083V24.0833C12.0416 22.7683 12.564 21.5071 13.4939 20.5773C14.4238 19.6474 15.6849 19.125 17 19.125C18.315 19.125 19.5762 19.6474 20.506 20.5773C21.4359 21.5071 21.9583 22.7683 21.9583 24.0833V26.2083C21.9583 26.3962 21.8837 26.5764 21.7508 26.7092C21.618 26.842 21.4378 26.9167 21.25 26.9167ZM13.4583 25.5H20.5416V24.0833C20.5416 23.144 20.1685 22.2432 19.5043 21.579C18.8401 20.9148 17.9393 20.5417 17 20.5417C16.0607 20.5417 15.1598 20.9148 14.4956 21.579C13.8314 22.2432 13.4583 23.144 13.4583 24.0833V25.5Z" fill="black" fill-opacity="0.3"/>
<path d="M17 20.5416C16.1594 20.5416 15.3377 20.2924 14.6388 19.8254C13.9399 19.3584 13.3952 18.6946 13.0735 17.918C12.7518 17.1414 12.6677 16.2869 12.8317 15.4625C12.9957 14.6381 13.4004 13.8808 13.9948 13.2864C14.5892 12.6921 15.3464 12.2873 16.1709 12.1233C16.9953 11.9593 17.8498 12.0435 18.6264 12.3651C19.403 12.6868 20.0668 13.2315 20.5337 13.9305C21.0007 14.6294 21.25 15.4511 21.25 16.2916C21.2489 17.4185 20.8007 18.4988 20.004 19.2956C19.2072 20.0924 18.1268 20.5405 17 20.5416ZM17 13.4583C16.4396 13.4583 15.8918 13.6245 15.4259 13.9358C14.9599 14.2471 14.5968 14.6896 14.3823 15.2074C14.1679 15.7251 14.1118 16.2948 14.2211 16.8444C14.3304 17.394 14.6003 17.8988 14.9965 18.2951C15.3928 18.6913 15.8976 18.9612 16.4472 19.0705C16.9969 19.1798 17.5665 19.1237 18.0843 18.9093C18.602 18.6948 19.0445 18.3317 19.3558 17.8657C19.6672 17.3998 19.8333 16.852 19.8333 16.2916C19.8333 15.5402 19.5348 14.8195 19.0035 14.2882C18.4721 13.7568 17.7514 13.4583 17 13.4583Z" fill="black" fill-opacity="0.3"/>
</svg>
