<svg width="34" height="34" viewBox="0 0 34 34" fill="none" xmlns="http://www.w3.org/2000/svg">
<g clip-path="url(#clip0_152_597)">
<path d="M31.3438 30.217C32.5545 29.9205 33.4688 28.6333 33.4688 27.0937C33.4688 25.5542 32.5545 24.267 31.3438 23.9705V6.90625H30.2812V4.78125H28.1562V2.65625H27.0805L27.0938 0.534433L26.0312 0.527527L26.018 2.65625H24.9688V4.78125H22.8438V6.90625H21.7812V11.5164C20.6295 11.8293 19.5511 12.3367 18.5938 13.0146V7.96875H20.7188V4.78125H18.0625V2.65625H16.9867L17 0.534433L15.9375 0.527527L15.9242 2.65625H14.875V4.78125H12.2188V7.96875H14.3438V18.1788L12.2188 17.6476V13.2812H13.2812V12.2187H10.0938V9.03125H9.03125V12.2187H7.96875V11.1562H6.90625V12.2187H5.84375V10.0937H4.78125V12.2187H1.59375V13.2812H2.65625V29.7638C2.01503 30.2488 1.59375 31.0107 1.59375 31.875C1.59375 32.0546 1.61766 32.2315 1.65325 32.4062H0.53125V33.4687H33.4688V32.4062H31.3438V30.217ZM15.4062 29.4472C14.6471 29.1183 13.7339 29.1598 13.0167 29.5773C12.3181 28.6886 11.2439 28.1562 10.0938 28.1562C9.30856 28.1562 8.5765 28.4033 7.96875 28.8262V17.6805L15.4062 19.5399V29.4472ZM15.8068 18.5443L15.8658 18.3972C17.0388 14.8707 20.23 12.4482 23.9062 12.2342V30.6505C23.315 30.3678 22.6493 30.2313 21.9613 30.2982C21.3563 29.0004 20.0547 28.1562 18.5938 28.1562C17.8197 28.1562 17.0829 28.4022 16.4688 28.8309V18.7101L15.8068 18.5443ZM26.0312 27.0937V29.0881C25.4145 28.7948 24.9688 28.016 24.9688 27.0937C24.9688 25.9218 25.6838 24.9687 26.5625 24.9687C27.4412 24.9687 28.1562 25.9218 28.1562 27.0937C28.1562 28.016 27.7105 28.7948 27.0938 29.0881V27.0937H26.0312ZM24.9688 31.4155V29.6374C25.2779 29.9173 25.6381 30.1203 26.0312 30.2164V32.4062H25.6599C25.4825 32.0349 25.2493 31.7029 24.9688 31.4155ZM27.0938 30.217C27.7429 30.0581 28.3039 29.6124 28.6875 28.9983C29.0711 29.6129 29.6321 30.0581 30.2812 30.217V32.4062H27.0938V30.217ZM32.4062 27.0937C32.4062 28.016 31.9605 28.7948 31.3438 29.0881V27.0937H30.2812V29.0881C29.6645 28.7948 29.2188 28.016 29.2188 27.0937C29.2188 25.9218 29.9338 24.9687 30.8125 24.9687C31.6912 24.9687 32.4062 25.9218 32.4062 27.0937ZM26.0312 3.71875H27.0938V4.78125H26.0312V3.71875ZM23.9062 5.84375H24.9688H28.1562H29.2188V6.90625H23.9062V5.84375ZM22.8438 7.96875H30.2812V23.9705C29.6321 24.1294 29.0711 24.5751 28.6875 25.1892C28.2025 24.4125 27.4316 23.9062 26.5625 23.9062C25.9643 23.9062 25.4134 24.148 24.9688 24.5496V11.1562H24.4375C23.8972 11.1562 23.3649 11.1993 22.8438 11.2822V7.96875ZM15.9375 3.71875H17V4.78125H15.9375V3.71875ZM13.2812 5.84375H19.6562V6.90625H13.2812V5.84375ZM17.5312 7.96875V13.8863C16.668 14.6949 15.9444 15.657 15.4062 16.7423V7.96875H17.5312ZM3.71875 13.2812H11.1562V17.382L6.90625 16.3195V29.9694C6.84091 30.0799 6.7745 30.1899 6.71978 30.3078C6.60822 30.2924 6.49453 30.2839 6.37659 30.2828C5.87828 29.6193 5.09097 29.2187 4.25 29.2187C4.06831 29.2187 3.89034 29.2373 3.71875 29.2724V13.2812ZM2.65625 31.875C2.65625 30.9963 3.37131 30.2812 4.25 30.2812C4.82428 30.2812 5.35659 30.592 5.63922 31.0925L5.80391 31.3841L6.375 31.3437C6.53119 31.3437 6.69588 31.374 6.87916 31.4357L7.395 31.6088L7.55597 31.0887C7.90181 29.9705 8.92181 29.2187 10.0938 29.2187C11.0601 29.2187 11.9515 29.7452 12.4196 30.5931L12.7516 31.1945L13.2499 30.7217C13.8492 30.1543 14.8373 30.1543 15.4365 30.7217L15.9348 31.1945L16.2669 30.5931C16.736 29.7452 17.6274 29.2187 18.5938 29.2187C19.7471 29.2187 20.7618 29.9561 21.1188 31.0537L21.2681 31.5122L21.7393 31.408C22.7896 31.1748 23.8197 31.6078 24.4253 32.4062H2.75931C2.69875 32.2352 2.65625 32.0583 2.65625 31.875Z" fill="black" fill-opacity="0.3"/>
<path d="M9.03125 14.3438H10.0938V15.4062H9.03125V14.3438Z" fill="black" fill-opacity="0.3"/>
<path d="M4.78125 14.3438H5.84375V15.4062H4.78125V14.3438Z" fill="black" fill-opacity="0.3"/>
<path d="M6.90625 14.3438H7.96875V15.4062H6.90625V14.3438Z" fill="black" fill-opacity="0.3"/>
<path d="M4.78125 22.8438H5.84375V23.9062H4.78125V22.8438Z" fill="black" fill-opacity="0.3"/>
<path d="M4.78125 20.7188H5.84375V21.7812H4.78125V20.7188Z" fill="black" fill-opacity="0.3"/>
<path d="M4.78125 18.5938H5.84375V19.6562H4.78125V18.5938Z" fill="black" fill-opacity="0.3"/>
<path d="M4.78125 24.9688H5.84375V26.0312H4.78125V24.9688Z" fill="black" fill-opacity="0.3"/>
<path d="M4.78125 16.4688H5.84375V17.5312H4.78125V16.4688Z" fill="black" fill-opacity="0.3"/>
<path d="M4.78125 27.0938H5.84375V28.1562H4.78125V27.0938Z" fill="black" fill-opacity="0.3"/>
<path d="M28.1562 9.03125H29.2188V10.0938H28.1562V9.03125Z" fill="black" fill-opacity="0.3"/>
<path d="M26.0312 9.03125H27.0938V10.0938H26.0312V9.03125Z" fill="black" fill-opacity="0.3"/>
<path d="M23.9062 9.03125H24.9688V10.0938H23.9062V9.03125Z" fill="black" fill-opacity="0.3"/>
<path d="M9.03125 26.0312H10.0938V27.0938H9.03125V26.0312Z" fill="black" fill-opacity="0.3"/>
<path d="M9.03125 23.9062H10.0938V24.9688H9.03125V23.9062Z" fill="black" fill-opacity="0.3"/>
<path d="M9.03125 21.7812H10.0938V22.8438H9.03125V21.7812Z" fill="black" fill-opacity="0.3"/>
<path d="M9.03125 19.6562H10.0938V20.7188H9.03125V19.6562Z" fill="black" fill-opacity="0.3"/>
<path d="M11.1562 19.6562H12.2188V20.7188H11.1562V19.6562Z" fill="black" fill-opacity="0.3"/>
<path d="M11.1562 21.7812H12.2188V22.8438H11.1562V21.7812Z" fill="black" fill-opacity="0.3"/>
<path d="M11.1562 26.0312H12.2188V27.0938H11.1562V26.0312Z" fill="black" fill-opacity="0.3"/>
<path d="M11.1562 23.9062H12.2188V24.9688H11.1562V23.9062Z" fill="black" fill-opacity="0.3"/>
<path d="M13.2812 26.0312H14.3438V27.0938H13.2812V26.0312Z" fill="black" fill-opacity="0.3"/>
<path d="M13.2812 21.7812H14.3438V22.8438H13.2812V21.7812Z" fill="black" fill-opacity="0.3"/>
<path d="M13.2812 19.6562H14.3438V20.7188H13.2812V19.6562Z" fill="black" fill-opacity="0.3"/>
<path d="M13.2812 23.9062H14.3438V24.9688H13.2812V23.9062Z" fill="black" fill-opacity="0.3"/>
<path d="M19.6562 26.0312H20.7188V27.0938H19.6562V26.0312Z" fill="black" fill-opacity="0.3"/>
<path d="M17.5312 26.0312H18.5938V27.0938H17.5312V26.0312Z" fill="black" fill-opacity="0.3"/>
<path d="M21.7812 26.0312H22.8438V27.0938H21.7812V26.0312Z" fill="black" fill-opacity="0.3"/>
<path d="M19.6562 23.9062H20.7188V24.9688H19.6562V23.9062Z" fill="black" fill-opacity="0.3"/>
<path d="M17.5312 23.9062H18.5938V24.9688H17.5312V23.9062Z" fill="black" fill-opacity="0.3"/>
<path d="M21.7812 23.9062H22.8438V24.9688H21.7812V23.9062Z" fill="black" fill-opacity="0.3"/>
<path d="M21.7812 21.7812H22.8438V22.8438H21.7812V21.7812Z" fill="black" fill-opacity="0.3"/>
<path d="M17.5312 21.7812H18.5938V22.8438H17.5312V21.7812Z" fill="black" fill-opacity="0.3"/>
<path d="M19.6562 21.7812H20.7188V22.8438H19.6562V21.7812Z" fill="black" fill-opacity="0.3"/>
<path d="M17.5312 19.6562H18.5938V20.7188H17.5312V19.6562Z" fill="black" fill-opacity="0.3"/>
<path d="M21.7812 19.6562H22.8438V20.7188H21.7812V19.6562Z" fill="black" fill-opacity="0.3"/>
<path d="M19.6562 19.6562H20.7188V20.7188H19.6562V19.6562Z" fill="black" fill-opacity="0.3"/>
<path d="M21.7812 17.5312H22.8438V18.5938H21.7812V17.5312Z" fill="black" fill-opacity="0.3"/>
<path d="M19.6562 17.5312H20.7188V18.5938H19.6562V17.5312Z" fill="black" fill-opacity="0.3"/>
<path d="M17.5312 17.5312H18.5938V18.5938H17.5312V17.5312Z" fill="black" fill-opacity="0.3"/>
<path d="M19.6562 15.4062H20.7188V16.4688H19.6562V15.4062Z" fill="black" fill-opacity="0.3"/>
<path d="M21.7812 15.4062H22.8438V16.4688H21.7812V15.4062Z" fill="black" fill-opacity="0.3"/>
<path d="M26.0312 11.1562H27.0938V12.2188H26.0312V11.1562Z" fill="black" fill-opacity="0.3"/>
<path d="M28.1562 11.1562H29.2188V12.2188H28.1562V11.1562Z" fill="black" fill-opacity="0.3"/>
<path d="M28.1562 13.2812H29.2188V14.3438H28.1562V13.2812Z" fill="black" fill-opacity="0.3"/>
<path d="M26.0312 13.2812H27.0938V14.3438H26.0312V13.2812Z" fill="black" fill-opacity="0.3"/>
<path d="M26.0312 15.4062H27.0938V16.4688H26.0312V15.4062Z" fill="black" fill-opacity="0.3"/>
<path d="M28.1562 15.4062H29.2188V16.4688H28.1562V15.4062Z" fill="black" fill-opacity="0.3"/>
<path d="M28.1562 17.5312H29.2188V18.5938H28.1562V17.5312Z" fill="black" fill-opacity="0.3"/>
<path d="M26.0312 17.5312H27.0938V18.5938H26.0312V17.5312Z" fill="black" fill-opacity="0.3"/>
<path d="M26.0312 19.6562H27.0938V20.7188H26.0312V19.6562Z" fill="black" fill-opacity="0.3"/>
<path d="M28.1562 19.6562H29.2188V20.7188H28.1562V19.6562Z" fill="black" fill-opacity="0.3"/>
<path d="M28.1562 21.7812H29.2188V22.8438H28.1562V21.7812Z" fill="black" fill-opacity="0.3"/>
<path d="M26.0312 21.7812H27.0938V22.8438H26.0312V21.7812Z" fill="black" fill-opacity="0.3"/>
</g>
<defs>
<clipPath id="clip0_152_597">
<rect width="34" height="34" fill="white"/>
</clipPath>
</defs>
</svg>
