<svg width="15" height="17" viewBox="0 0 15 17" fill="none" xmlns="http://www.w3.org/2000/svg">
<path d="M13.0781 2.125H10.1562V1.59375C10.1562 0.713535 9.44271 0 8.5625 0H6.4375C5.55729 0 4.84375 0.713535 4.84375 1.59375V2.125H1.92188C1.18838 2.125 0.59375 2.71963 0.59375 3.45312V4.51562C0.59375 4.80904 0.831584 5.04688 1.125 5.04688H13.875C14.1684 5.04688 14.4062 4.80904 14.4062 4.51562V3.45312C14.4062 2.71963 13.8116 2.125 13.0781 2.125ZM5.90625 1.59375C5.90625 1.3009 6.14465 1.0625 6.4375 1.0625H8.5625C8.85535 1.0625 9.09375 1.3009 9.09375 1.59375V2.125H5.90625V1.59375Z" fill="black"/>
<path d="M1.60204 6.10938C1.50725 6.10938 1.43171 6.1886 1.43623 6.28329L1.87451 15.482C1.91502 16.3333 2.61427 17 3.46627 17H11.534C12.386 17 13.0852 16.3333 13.1257 15.482L13.564 6.28329C13.5685 6.1886 13.493 6.10938 13.3982 6.10938H1.60204ZM9.62511 7.4375C9.62511 7.14398 9.86285 6.90625 10.1564 6.90625C10.4499 6.90625 10.6876 7.14398 10.6876 7.4375V14.3438C10.6876 14.6373 10.4499 14.875 10.1564 14.875C9.86285 14.875 9.62511 14.6373 9.62511 14.3438V7.4375ZM6.96886 7.4375C6.96886 7.14398 7.2066 6.90625 7.50011 6.90625C7.79363 6.90625 8.03136 7.14398 8.03136 7.4375V14.3438C8.03136 14.6373 7.79363 14.875 7.50011 14.875C7.2066 14.875 6.96886 14.6373 6.96886 14.3438V7.4375ZM4.31261 7.4375C4.31261 7.14398 4.55035 6.90625 4.84386 6.90625C5.13738 6.90625 5.37511 7.14398 5.37511 7.4375V14.3438C5.37511 14.6373 5.13738 14.875 4.84386 14.875C4.55035 14.875 4.31261 14.6373 4.31261 14.3438V7.4375Z" fill="black"/>
</svg>
