<svg width="64" height="64" viewBox="0 0 64 64" fill="none" xmlns="http://www.w3.org/2000/svg">
<g clip-path="url(#clip0_35_374)">
<path fill-rule="evenodd" clip-rule="evenodd" d="M32 0C14.35 0 0 14.35 0 32C0 49.65 14.35 64 32 64C49.65 64 64 49.65 64 32C64 14.35 49.65 0 32 0Z" fill="#4BAE4F"/>
<path d="M25.8375 46.6376C21.75 42.5501 17.6875 38.4251 13.5875 34.3376C13.1375 33.8876 13.1375 33.1376 13.5875 32.6876L18.3 27.9751C18.75 27.5251 19.5 27.5251 19.95 27.9751L26.6875 34.7126L44.0125 17.3751C44.475 16.9251 45.2125 16.9251 45.675 17.3751L50.4 22.1001C50.8625 22.5626 50.8625 23.3001 50.4 23.7501L27.4875 46.6376C27.0375 47.1001 26.3 47.1001 25.8375 46.6376Z" fill="white"/>
</g>
<defs>
<clipPath id="clip0_35_374">
<rect width="64" height="64" fill="white"/>
</clipPath>
</defs>
</svg>
