<svg width="17" height="17" viewBox="0 0 17 17" fill="none" xmlns="http://www.w3.org/2000/svg">
<path d="M6.47461 7.63672C8.30837 7.63672 9.79492 6.15016 9.79492 4.31641C9.79492 2.48265 8.30837 0.996094 6.47461 0.996094C4.64085 0.996094 3.1543 2.48265 3.1543 4.31641C3.1543 6.15016 4.64085 7.63672 6.47461 7.63672Z" fill="black" fill-opacity="0.5"/>
<path d="M6.86898 10.625H6.08041L5.66846 13.7008L6.4747 14.7086L7.28093 13.7008L6.86898 10.625Z" fill="black" fill-opacity="0.5"/>
<path d="M6.06641 9.62891H6.88274L7.04875 8.63281H5.90039L6.06641 9.62891Z" fill="black" fill-opacity="0.5"/>
<path d="M4.65285 13.7796L5.14097 10.135L4.89059 8.63281H3.98438C1.78387 8.63281 0 10.4167 0 12.6172V15.5059C0 15.7809 0.222992 16.0039 0.498047 16.0039H6.23525L4.75758 14.1568C4.67264 14.0507 4.63479 13.9144 4.65285 13.7796Z" fill="black" fill-opacity="0.5"/>
<path d="M9.87985 8.7391C9.586 8.6699 9.27974 8.63281 8.96474 8.63281H8.05853L7.80818 10.135L8.29629 13.7796C8.31436 13.9144 8.27651 14.0507 8.19157 14.1568L6.71387 16.0039H9.29813C8.98476 15.5874 8.79872 15.0699 8.79872 14.5098V10.791C8.79872 9.94055 9.22741 9.18853 9.87985 8.7391Z" fill="black" fill-opacity="0.5"/>
<path d="M15.5059 9.29688H15.2236V8.4668C15.2236 7.82601 14.7023 7.30469 14.0615 7.30469H12.7334C12.0926 7.30469 11.5713 7.82601 11.5713 8.4668V9.29688H11.2891C10.4639 9.29688 9.79492 9.96582 9.79492 10.791V11.123H17V10.791C17 9.96582 16.3311 9.29688 15.5059 9.29688ZM14.2275 9.29688H12.5674V8.4668C12.5674 8.37526 12.6419 8.30078 12.7334 8.30078H14.0615C14.1531 8.30078 14.2275 8.37526 14.2275 8.4668V9.29688Z" fill="black" fill-opacity="0.5"/>
<path d="M9.79492 14.5098C9.79492 15.335 10.4639 16.0039 11.2891 16.0039H15.5059C16.3311 16.0039 17 15.335 17 14.5098V12.1191H9.79492V14.5098Z" fill="black" fill-opacity="0.5"/>
</svg>
