<svg width="34" height="34" viewBox="0 0 34 34" fill="none" xmlns="http://www.w3.org/2000/svg">
<path d="M33.7838 16.3387C33.4801 15.9232 26.243 6.16483 16.9998 6.16483C7.75665 6.16483 0.519164 15.9232 0.215754 16.3383C-0.071918 16.7325 -0.071918 17.2671 0.215754 17.6613C0.519164 18.0768 7.75665 27.8351 16.9998 27.8351C26.243 27.8351 33.4801 18.0767 33.7838 17.6616C34.0719 17.2675 34.0719 16.7324 33.7838 16.3387ZM16.9998 25.5934C10.1912 25.5934 4.29429 19.1166 2.54867 16.9992C4.29204 14.88 10.1766 8.40657 16.9998 8.40657C23.808 8.40657 29.7046 14.8822 31.4509 17.0007C29.7076 19.1199 23.823 25.5934 16.9998 25.5934Z" fill="black" fill-opacity="0.3"/>
<path d="M16.9998 10.2747C13.2916 10.2747 10.2745 13.2918 10.2745 17C10.2745 20.7083 13.2916 23.7253 16.9998 23.7253C20.7081 23.7253 23.7251 20.7083 23.7251 17C23.7251 13.2918 20.7081 10.2747 16.9998 10.2747ZM16.9998 21.4835C14.5275 21.4835 12.5163 19.4722 12.5163 17C12.5163 14.5278 14.5276 12.5165 16.9998 12.5165C19.4721 12.5165 21.4833 14.5278 21.4833 17C21.4833 19.4722 19.4721 21.4835 16.9998 21.4835Z" fill="black" fill-opacity="0.3"/>
</svg>
