<svg width="24" height="24" viewBox="0 0 24 24" fill="none" xmlns="http://www.w3.org/2000/svg">
<path d="M22.6413 9.7876H13.2037C12.7876 9.7876 12.4507 10.1245 12.4507 10.5406V13.5577C12.4507 13.9738 12.7876 14.3107 13.2037 14.3107H18.5195C17.9398 15.8217 16.8499 17.085 15.4677 17.8876L17.7318 21.8112C21.3631 19.7107 23.5132 16.0199 23.5132 11.8931C23.5132 11.3036 23.4686 10.8825 23.3844 10.4118C23.3151 10.0502 23.003 9.7876 22.6413 9.7876Z" fill="#167EE6"/>
<path d="M11.9456 18.8383C9.34471 18.8383 7.07572 17.4165 5.85701 15.3159L1.93335 17.575C3.92986 21.0379 7.67022 23.3664 11.9456 23.3664C14.0462 23.3664 16.0229 22.8016 17.732 21.8157V21.8108L15.468 17.8871C14.4276 18.4915 13.2287 18.8383 11.9456 18.8383Z" fill="#12B347"/>
<path d="M17.727 21.8158V21.8109L15.463 17.8872C14.4276 18.4867 13.2287 18.8384 11.9456 18.8384V23.3665C14.0461 23.3665 16.0228 22.8017 17.727 21.8158Z" fill="#0F993E"/>
<path d="M4.90575 11.798C4.90575 10.5149 5.25749 9.31597 5.85694 8.28056L1.93328 6.02148C0.942455 7.72075 0.377686 9.69249 0.377686 11.798C0.377686 13.9035 0.942455 15.8752 1.93328 17.5745L5.85694 15.3154C5.25254 14.28 4.90575 13.0811 4.90575 11.798Z" fill="#FFD500"/>
<path d="M11.9456 4.75902C13.6399 4.75902 15.2005 5.36342 16.4142 6.36415C16.7164 6.61186 17.1524 6.59204 17.4249 6.31957L19.5601 4.18434C19.8722 3.87223 19.8474 3.36196 19.5155 3.07462C17.4794 1.30105 14.8289 0.230957 11.9456 0.230957C7.67022 0.230957 3.92986 2.55939 1.93335 6.02232L5.85701 8.2814C7.07572 6.18085 9.34471 4.75902 11.9456 4.75902Z" fill="#FF4B26"/>
<path d="M16.4142 6.36415C16.7164 6.61186 17.1523 6.59204 17.4248 6.31957L19.56 4.18434C19.8721 3.87223 19.8474 3.36196 19.5154 3.07462C17.4793 1.30105 14.8289 0.230957 11.9456 0.230957V4.75902C13.6399 4.75902 15.2004 5.35847 16.4142 6.36415Z" fill="#D93F21"/>
</svg>
