<svg width="10" height="13" viewBox="0 0 10 13" fill="none" xmlns="http://www.w3.org/2000/svg">
<path d="M4.92058 0.706055C3.01662 0.706055 1.49345 2.22922 1.49345 4.13319V5.65635C0.846104 5.65635 0.351074 6.15138 0.351074 6.79873V11.749C0.351074 12.3964 0.846104 12.8914 1.49345 12.8914H8.34771C8.99506 12.8914 9.49009 12.3964 9.49009 11.749V6.79873C9.49009 6.15138 8.99506 5.65635 8.34771 5.65635V4.13319C8.34771 2.22922 6.82454 0.706055 4.92058 0.706055ZM8.72851 6.79873V11.749C8.72851 11.9775 8.57619 12.1298 8.34771 12.1298H1.49345C1.26498 12.1298 1.11266 11.9775 1.11266 11.749V6.79873C1.11266 6.57026 1.26498 6.41794 1.49345 6.41794H1.87424H7.96692H8.34771C8.57619 6.41794 8.72851 6.57026 8.72851 6.79873ZM2.25504 5.65635V4.13319C2.25504 2.6481 3.43549 1.46764 4.92058 1.46764C6.40567 1.46764 7.58613 2.6481 7.58613 4.13319V5.65635H2.25504Z" fill="black" fill-opacity="0.3"/>
<path d="M4.92045 7.56055C4.27311 7.56055 3.77808 8.05558 3.77808 8.70292C3.77808 9.19795 4.08271 9.61683 4.53966 9.76914V10.6069C4.53966 10.8354 4.69198 10.9877 4.92045 10.9877C5.14893 10.9877 5.30125 10.8354 5.30125 10.6069V9.76914C5.7582 9.61683 6.06283 9.19795 6.06283 8.70292C6.06283 8.05558 5.5678 7.56055 4.92045 7.56055ZM4.92045 9.08372C4.69198 9.08372 4.53966 8.9314 4.53966 8.70292C4.53966 8.47445 4.69198 8.32213 4.92045 8.32213C5.14893 8.32213 5.30125 8.47445 5.30125 8.70292C5.30125 8.9314 5.14893 9.08372 4.92045 9.08372Z" fill="black" fill-opacity="0.3"/>
</svg>
