<svg width="14" height="11" viewBox="0 0 14 11" fill="none" xmlns="http://www.w3.org/2000/svg">
<path d="M12.164 0.428711H1.4929C0.866233 0.428711 0.35498 0.939407 0.35498 1.56663V9.15272C0.35498 9.77782 0.863957 10.2906 1.4929 10.2906H12.164C12.7891 10.2906 13.3019 9.78166 13.3019 9.15272V1.56663C13.3019 0.941531 12.7929 0.428711 12.164 0.428711ZM12.0069 1.18732L6.85257 6.34164L1.65369 1.18732H12.0069ZM1.11359 8.99564V1.72009L4.76703 5.3422L1.11359 8.99564ZM1.65 9.53203L5.30574 5.87629L6.58671 7.14625C6.73499 7.29327 6.97428 7.29279 7.12196 7.14509L8.37096 5.89609L12.0069 9.53203H1.65ZM12.5433 8.99561L8.90737 5.35967L12.5433 1.72371V8.99561Z" fill="black"/>
</svg>
