<svg width="34" height="34" viewBox="0 0 34 34" fill="none" xmlns="http://www.w3.org/2000/svg">
<g clip-path="url(#clip0_152_658)">
<path d="M6.92814 22.6009C10.2816 26.6096 14.3185 29.7659 18.9261 31.9992C20.6803 32.8305 23.0264 33.8168 25.6401 33.9859C25.8022 33.993 25.9571 34 26.1192 34C27.8734 34 29.2825 33.3941 30.4308 32.1471C30.4379 32.1401 30.452 32.126 30.459 32.1119C30.8676 31.6187 31.3326 31.1749 31.8187 30.7029C32.1499 30.3858 32.488 30.0547 32.8121 29.7165C34.3127 28.1525 34.3127 26.1658 32.798 24.6511L28.5639 20.4169C27.8453 19.6701 26.9857 19.2756 26.084 19.2756C25.1822 19.2756 24.3156 19.6701 23.5759 20.4099L21.0537 22.932C20.8212 22.7982 20.5817 22.6784 20.3562 22.5657C20.0744 22.4248 19.8138 22.2909 19.5813 22.143C17.2845 20.6846 15.1992 18.7824 13.2054 16.3378C12.1979 15.0626 11.5216 13.9917 11.0496 12.8997C11.7118 12.3009 12.3318 11.6739 12.9306 11.0609C13.142 10.8425 13.3604 10.6241 13.5788 10.4057C14.3397 9.64484 14.7483 8.76419 14.7483 7.86946C14.7483 6.97472 14.3467 6.09407 13.5788 5.3332L11.4793 3.23373C11.2327 2.98715 11.0002 2.74762 10.7607 2.50104C10.2957 2.02196 9.80961 1.5288 9.33054 1.08496C8.60489 0.373394 7.75242 0 6.85064 0C5.9559 0 5.09639 0.373394 4.34256 1.092L1.70766 3.7269C0.749521 4.68504 0.207042 5.84749 0.0943194 7.19312C-0.0395388 8.87692 0.270449 10.6664 1.0736 12.8293C2.3065 16.1757 4.16643 19.2826 6.92814 22.6009ZM1.81334 7.34107C1.89788 6.40406 2.25719 5.62205 2.93352 4.94571L5.55433 2.32491C5.96295 1.93038 6.41384 1.72607 6.85064 1.72607C7.2804 1.72607 7.7172 1.93038 8.11877 2.339C8.5908 2.7758 9.03464 3.23373 9.51371 3.71985C9.75325 3.96643 9.99983 4.21301 10.2464 4.46664L12.3459 6.5661C12.7827 7.0029 13.0081 7.44675 13.0081 7.88355C13.0081 8.32035 12.7827 8.76419 12.3459 9.201C12.1275 9.4194 11.9091 9.64484 11.6907 9.86324C11.0355 10.5255 10.4225 11.1525 9.74621 11.7513C9.73212 11.7654 9.72507 11.7725 9.71098 11.7866C9.12623 12.3713 9.21782 12.9279 9.35872 13.3506C9.36577 13.3717 9.37281 13.3858 9.37986 13.407C9.92234 14.7103 10.6762 15.9503 11.8527 17.4298C13.9663 20.0365 16.1925 22.0584 18.6443 23.6154C18.9472 23.8127 19.2713 23.9677 19.5742 24.1227C19.856 24.2636 20.1167 24.3974 20.3492 24.5454C20.3774 24.5595 20.3985 24.5736 20.4267 24.5877C20.6592 24.7074 20.8846 24.7638 21.1101 24.7638C21.6737 24.7638 22.04 24.4045 22.1598 24.2847L24.7947 21.6498C25.2033 21.2412 25.6472 21.0228 26.084 21.0228C26.6194 21.0228 27.0562 21.3539 27.331 21.6498L31.5792 25.891C32.4246 26.7364 32.4176 27.6523 31.5581 28.547C31.2622 28.8641 30.9522 29.167 30.621 29.484C30.1279 29.9631 29.6136 30.4563 29.1486 31.0128C28.3384 31.8864 27.3732 32.2951 26.1262 32.2951C26.0065 32.2951 25.8797 32.288 25.7599 32.281C23.4491 32.133 21.3003 31.2312 19.6869 30.4633C15.3048 28.3427 11.4582 25.3344 8.26672 21.516C5.63887 18.3527 3.87053 15.4078 2.70103 12.2516C1.97538 10.3141 1.70062 8.75715 1.81334 7.34107Z" fill="black" fill-opacity="0.3"/>
</g>
<defs>
<clipPath id="clip0_152_658">
<rect width="34" height="34" fill="white"/>
</clipPath>
</defs>
</svg>
