<svg width="17" height="17" viewBox="0 0 17 17" fill="none" xmlns="http://www.w3.org/2000/svg">
<path d="M16.2917 6.15967C15.9 6.15967 15.5834 5.84233 15.5834 5.45133V2.09383C15.5834 1.72054 15.2795 1.41667 14.9069 1.41667H11.5494C11.1577 1.41667 10.8411 1.09933 10.8411 0.708333C10.8411 0.317333 11.1577 0 11.5494 0H14.9069C16.0615 0 17 0.93925 17 2.09383V5.45133C17 5.84233 16.6834 6.15967 16.2917 6.15967Z" fill="white"/>
<path d="M0.708333 6.15967C0.316625 6.15967 0 5.84233 0 5.45133V2.09383C0 0.93925 0.938542 0 2.09313 0H5.45063C5.84233 0 6.15896 0.317333 6.15896 0.708333C6.15896 1.09933 5.84233 1.41667 5.45063 1.41667H2.09313C1.72054 1.41667 1.41667 1.72054 1.41667 2.09383V5.45133C1.41667 5.84233 1.10004 6.15967 0.708333 6.15967Z" fill="white"/>
<path d="M14.9069 17H11.5494C11.1577 17 10.8411 16.6827 10.8411 16.2917C10.8411 15.9007 11.1577 15.5833 11.5494 15.5833H14.9069C15.2795 15.5833 15.5834 15.2795 15.5834 14.9062V11.5487C15.5834 11.1577 15.9 10.8403 16.2917 10.8403C16.6834 10.8403 17 11.1577 17 11.5487V14.9062C17 16.0607 16.0615 17 14.9069 17Z" fill="white"/>
<path d="M5.45063 17H2.09313C0.938542 17 0 16.0607 0 14.9062V11.5487C0 11.1577 0.316625 10.8403 0.708333 10.8403C1.10004 10.8403 1.41667 11.1577 1.41667 11.5487V14.9062C1.41667 15.2795 1.72054 15.5833 2.09313 15.5833H5.45063C5.84233 15.5833 6.15896 15.9007 6.15896 16.2917C6.15896 16.6827 5.84233 17 5.45063 17Z" fill="white"/>
<path d="M6.71366 7.90425H3.18758C2.79587 7.90425 2.47925 7.58692 2.47925 7.19592V3.18746C2.47925 2.79646 2.79587 2.47913 3.18758 2.47913H6.71366C7.10537 2.47913 7.422 2.79646 7.422 3.18746V7.19592C7.422 7.58692 7.10466 7.90425 6.71366 7.90425ZM3.89591 6.48758H6.00533V3.89579H3.89591V6.48758Z" fill="white"/>
<path d="M13.8124 14.5208H10.4478C10.0561 14.5208 9.7395 14.2035 9.7395 13.8125V11.5586C9.7395 11.1676 10.0561 10.8503 10.4478 10.8503C10.8395 10.8503 11.1562 11.1676 11.1562 11.5586V13.1042H13.1041V10.9792H12.2668C11.8751 10.9792 11.5585 10.6618 11.5585 10.2708C11.5585 9.87983 11.8751 9.5625 12.2668 9.5625H13.8124C14.2041 9.5625 14.5208 9.87983 14.5208 10.2708V13.8125C14.5208 14.2035 14.2041 14.5208 13.8124 14.5208Z" fill="white"/>
<path d="M13.8124 6.79358H10.9146C10.5229 6.79358 10.2063 6.47625 10.2063 6.08525V3.18746C10.2063 2.79646 10.5229 2.47913 10.9146 2.47913H13.8124C14.2041 2.47913 14.5208 2.79646 14.5208 3.18746V6.08525C14.5208 6.47625 14.2041 6.79358 13.8124 6.79358ZM11.623 5.37692H13.1041V3.89579H11.623V5.37692Z" fill="white"/>
<path d="M8.83867 10.013H3.18758C2.79587 10.013 2.47925 9.69567 2.47925 9.30467C2.47925 8.91367 2.79587 8.59634 3.18758 8.59634H8.13033V3.83138C8.13033 3.44038 8.44696 3.12305 8.83867 3.12305C9.23037 3.12305 9.547 3.44038 9.547 3.83138V9.30467C9.547 9.69567 9.22966 10.013 8.83867 10.013Z" fill="white"/>
<path d="M10.8021 9.83586C10.4104 9.83586 10.0938 9.51853 10.0938 9.12753V8.16207C10.0938 7.77107 10.4104 7.45374 10.8021 7.45374H13.9896C14.3813 7.45374 14.6979 7.77107 14.6979 8.16207C14.6979 8.55307 14.3813 8.8704 13.9896 8.8704H11.5104V9.12753C11.5104 9.51853 11.1938 9.83586 10.8021 9.83586Z" fill="white"/>
<path d="M8.51546 13.6007C8.12375 13.6007 7.80713 13.2834 7.80713 12.8924V11.283C7.80713 10.892 8.12375 10.5747 8.51546 10.5747C8.90717 10.5747 9.2238 10.892 9.2238 11.283V12.8924C9.2238 13.2834 8.90717 13.6007 8.51546 13.6007Z" fill="white"/>
<path d="M6.55216 14.5209H3.18758C2.79587 14.5209 2.47925 14.2035 2.47925 13.8125V11.237C2.47925 10.846 2.79587 10.5287 3.18758 10.5287H6.55216C6.94387 10.5287 7.2605 10.846 7.2605 11.237V13.8125C7.2605 14.2035 6.94387 14.5209 6.55216 14.5209ZM3.89591 13.1042H5.84383V11.9454H3.89591V13.1042Z" fill="white"/>
</svg>
