<svg width="89" height="89" viewBox="0 0 89 89" fill="none" xmlns="http://www.w3.org/2000/svg">
<path d="M85.2917 32.2477C83.241 32.2477 81.5834 30.5863 81.5834 28.5393V10.9618C81.5834 9.00754 79.9925 7.41667 78.0419 7.41667H60.4644C58.4137 7.41667 56.7561 5.75533 56.7561 3.70833C56.7561 1.66133 58.4137 0 60.4644 0H78.0419C84.0865 0 89.0001 4.91725 89.0001 10.9618V28.5393C89.0001 30.5863 87.3424 32.2477 85.2917 32.2477Z" fill="#CE342C"/>
<path d="M3.70833 32.2477C1.65763 32.2477 0 30.5863 0 28.5393V10.9618C0 4.91725 4.91354 0 10.9581 0H28.5356C30.5863 0 32.244 1.66133 32.244 3.70833C32.244 5.75533 30.5863 7.41667 28.5356 7.41667H10.9581C9.00754 7.41667 7.41667 9.00754 7.41667 10.9618V28.5393C7.41667 30.5863 5.75904 32.2477 3.70833 32.2477Z" fill="#CE342C"/>
<path d="M78.0419 89H60.4644C58.4137 89 56.7561 87.3387 56.7561 85.2917C56.7561 83.2447 58.4137 81.5833 60.4644 81.5833H78.0419C79.9925 81.5833 81.5834 79.9924 81.5834 78.0382V60.4607C81.5834 58.4137 83.241 56.7523 85.2917 56.7523C87.3424 56.7523 89.0001 58.4137 89.0001 60.4607V78.0382C89.0001 84.0827 84.0865 89 78.0419 89Z" fill="#CE342C"/>
<path d="M28.5356 89H10.9581C4.91354 89 0 84.0827 0 78.0382V60.4607C0 58.4137 1.65763 56.7523 3.70833 56.7523C5.75904 56.7523 7.41667 58.4137 7.41667 60.4607V78.0382C7.41667 79.9924 9.00754 81.5833 10.9581 81.5833H28.5356C30.5863 81.5833 32.244 83.2447 32.244 85.2917C32.244 87.3387 30.5863 89 28.5356 89Z" fill="#CE342C"/>
<path d="M35.1474 41.3814H16.6873C14.6366 41.3814 12.979 39.72 12.979 37.673V16.6876C12.979 14.6406 14.6366 12.9792 16.6873 12.9792H35.1474C37.1981 12.9792 38.8558 14.6406 38.8558 16.6876V37.673C38.8558 39.72 37.1944 41.3814 35.1474 41.3814ZM20.3957 33.9647H31.4391V20.3959H20.3957V33.9647Z" fill="#CE342C"/>
<path d="M72.3127 76.0208H54.6981C52.6474 76.0208 50.9897 74.3595 50.9897 72.3125V60.5126C50.9897 58.4656 52.6474 56.8043 54.6981 56.8043C56.7488 56.8043 58.4064 58.4656 58.4064 60.5126V68.6042H68.6043V57.4792H64.2211C62.1704 57.4792 60.5127 55.8178 60.5127 53.7708C60.5127 51.7238 62.1704 50.0625 64.2211 50.0625H72.3127C74.3634 50.0625 76.021 51.7238 76.021 53.7708V72.3125C76.021 74.3595 74.3634 76.0208 72.3127 76.0208Z" fill="#CE342C"/>
<path d="M72.3127 35.5667H57.1419C55.0912 35.5667 53.4336 33.9054 53.4336 31.8584V16.6876C53.4336 14.6406 55.0912 12.9792 57.1419 12.9792H72.3127C74.3634 12.9792 76.0211 14.6406 76.0211 16.6876V31.8584C76.0211 33.9054 74.3634 35.5667 72.3127 35.5667ZM60.8503 28.15H68.6044V20.3959H60.8503V28.15Z" fill="#CE342C"/>
<path d="M46.2724 52.4211H16.6873C14.6366 52.4211 12.979 50.7597 12.979 48.7127C12.979 46.6657 14.6366 45.0044 16.6873 45.0044H42.5641V20.0584C42.5641 18.0114 44.2217 16.3501 46.2724 16.3501C48.3231 16.3501 49.9808 18.0114 49.9808 20.0584V48.7127C49.9808 50.7597 48.3194 52.4211 46.2724 52.4211Z" fill="#CE342C"/>
<path d="M56.5521 51.494C54.5014 51.494 52.8438 49.8326 52.8438 47.7856V42.7312C52.8438 40.6842 54.5014 39.0228 56.5521 39.0228H73.2396C75.2903 39.0228 76.9479 40.6842 76.9479 42.7312C76.9479 44.7782 75.2903 46.4395 73.2396 46.4395H60.2604V47.7856C60.2604 49.8326 58.6028 51.494 56.5521 51.494Z" fill="#CE342C"/>
<path d="M44.5816 71.2037C42.5309 71.2037 40.8733 69.5424 40.8733 67.4954V59.07C40.8733 57.023 42.5309 55.3617 44.5816 55.3617C46.6323 55.3617 48.29 57.023 48.29 59.07V67.4954C48.29 69.5424 46.6323 71.2037 44.5816 71.2037Z" fill="#CE342C"/>
<path d="M34.3019 76.0209H16.6873C14.6366 76.0209 12.979 74.3596 12.979 72.3126V58.8291C12.979 56.7821 14.6366 55.1207 16.6873 55.1207H34.3019C36.3526 55.1207 38.0103 56.7821 38.0103 58.8291V72.3126C38.0103 74.3596 36.3526 76.0209 34.3019 76.0209ZM20.3957 68.6042H30.5936V62.5374H20.3957V68.6042Z" fill="#CE342C"/>
</svg>
