<svg width="16" height="16" viewBox="0 0 16 16" fill="none" xmlns="http://www.w3.org/2000/svg">
<path d="M14.7855 13.6086L12.0829 10.906C12.9019 9.83374 13.3512 8.53318 13.3513 7.16081C13.3513 5.50696 12.7072 3.95199 11.5376 2.78255C10.3681 1.61312 8.81338 0.968996 7.15932 0.968995C5.50547 0.968995 3.9505 1.61312 2.78107 2.78255C0.366922 5.1969 0.366921 9.12512 2.78107 11.5391C3.9505 12.7087 5.50547 13.3528 7.15932 13.3528C8.5317 13.3526 9.83225 12.9034 10.9045 12.0844L13.6071 14.7869C13.7696 14.9497 13.9831 15.0311 14.1963 15.0311C14.4095 15.0311 14.6229 14.9497 14.7855 14.7869C15.111 14.4616 15.111 13.9339 14.7855 13.6086ZM3.95945 10.3607C2.19513 8.59635 2.19533 5.72546 3.95945 3.96094C4.81415 3.10645 5.95062 2.63566 7.15932 2.63566C8.36823 2.63566 9.5045 3.10645 10.3592 3.96094C11.2139 4.81563 11.6847 5.95211 11.6847 7.16081C11.6847 8.36971 11.2139 9.50598 10.3592 10.3607C9.5045 11.2154 8.36822 11.6862 7.15932 11.6862C5.95062 11.6862 4.81415 11.2154 3.95945 10.3607Z" fill="black" fill-opacity="0.5"/>
</svg>
