<svg width="21" height="21" viewBox="0 0 21 21" fill="none" xmlns="http://www.w3.org/2000/svg">
<path d="M10.4481 15.251C10.4481 17.8601 8.33308 19.9751 5.72406 19.9751C3.11504 19.9751 1 17.8601 1 15.251C1 12.642 3.11504 10.527 5.72406 10.527C8.33308 10.527 10.4481 12.642 10.4481 15.251Z" stroke="#808080" stroke-width="1.2" stroke-miterlimit="10" stroke-linecap="round" stroke-linejoin="round"/>
<path d="M5.72412 19.975H18.7153C19.3675 19.975 19.8963 19.4463 19.8963 18.794V4.9369L15.9597 1.00007H6.90514C6.2529 1.00007 5.72412 1.52885 5.72412 2.18109V10.5269" stroke="#808080" stroke-width="1.2" stroke-miterlimit="10" stroke-linecap="round" stroke-linejoin="round"/>
<path d="M15.9595 1.00005V4.93677H19.8962L15.9595 1.00005Z" stroke="#808080" stroke-width="1.2" stroke-miterlimit="10" stroke-linecap="round" stroke-linejoin="round"/>
<path d="M8.84839 11.7079H17.1406" stroke="#808080" stroke-width="1.2" stroke-miterlimit="10" stroke-linecap="round" stroke-linejoin="round"/>
<path d="M8.47974 8.16486H17.1405" stroke="#808080" stroke-width="1.2" stroke-miterlimit="10" stroke-linecap="round" stroke-linejoin="round"/>
<path d="M10.4482 15.251H17.1407" stroke="#808080" stroke-width="1.2" stroke-miterlimit="10" stroke-linecap="round" stroke-linejoin="round"/>
<path d="M5.72412 15.251V12.8889" stroke="#808080" stroke-width="1.2" stroke-miterlimit="10" stroke-linecap="round" stroke-linejoin="round"/>
<path d="M5.72412 15.251H7.29881" stroke="#808080" stroke-width="1.2" stroke-miterlimit="10" stroke-linecap="round" stroke-linejoin="round"/>
</svg>
