<svg width="34" height="34" viewBox="0 0 34 34" fill="none" xmlns="http://www.w3.org/2000/svg">
<path d="M31.0117 6.04297H2.98828C1.34054 6.04297 0 7.38351 0 9.03125V24.9688C0 26.6165 1.34054 27.957 2.98828 27.957H31.0117C32.6595 27.957 34 26.6165 34 24.9688V9.03125C34 7.38351 32.6595 6.04297 31.0117 6.04297ZM32.0078 24.9688C32.0078 25.518 31.561 25.9648 31.0117 25.9648H2.98828C2.43904 25.9648 1.99219 25.518 1.99219 24.9688V9.03125C1.99219 8.482 2.43904 8.03516 2.98828 8.03516H31.0117C31.561 8.03516 32.0078 8.482 32.0078 9.03125V24.9688Z" fill="black" fill-opacity="0.3"/>
<path d="M25.6328 12.6836H8.36719C7.81708 12.6836 7.37109 13.1296 7.37109 13.6797C7.37109 14.2298 7.81708 14.6758 8.36719 14.6758H25.6328C26.1829 14.6758 26.6289 14.2298 26.6289 13.6797C26.6289 13.1296 26.1829 12.6836 25.6328 12.6836Z" fill="black" fill-opacity="0.3"/>
<path d="M15.0078 19.3242H13.6797C13.1296 19.3242 12.6836 19.7702 12.6836 20.3203C12.6836 20.8704 13.1296 21.3164 13.6797 21.3164H15.0078C15.5579 21.3164 16.0039 20.8704 16.0039 20.3203C16.0039 19.7702 15.5579 19.3242 15.0078 19.3242Z" fill="black" fill-opacity="0.3"/>
<path d="M20.3203 19.3242H18.9922C18.4421 19.3242 17.9961 19.7702 17.9961 20.3203C17.9961 20.8704 18.4421 21.3164 18.9922 21.3164H20.3203C20.8704 21.3164 21.3164 20.8704 21.3164 20.3203C21.3164 19.7702 20.8704 19.3242 20.3203 19.3242Z" fill="black" fill-opacity="0.3"/>
<path d="M25.6328 19.3242H24.3047C23.7546 19.3242 23.3086 19.7702 23.3086 20.3203C23.3086 20.8704 23.7546 21.3164 24.3047 21.3164H25.6328C26.1829 21.3164 26.6289 20.8704 26.6289 20.3203C26.6289 19.7702 26.1829 19.3242 25.6328 19.3242Z" fill="black" fill-opacity="0.3"/>
<path d="M9.69531 19.3242H8.36719C7.81708 19.3242 7.37109 19.7702 7.37109 20.3203C7.37109 20.8704 7.81708 21.3164 8.36719 21.3164H9.69531C10.2454 21.3164 10.6914 20.8704 10.6914 20.3203C10.6914 19.7702 10.2454 19.3242 9.69531 19.3242Z" fill="black" fill-opacity="0.3"/>
</svg>
